<?xml version="1.0" encoding="utf-8"?>
<!-- Generator: Adobe Illustrator 17.0.0, SVG Export Plug-In . SVG Version: 6.00 Build 0)  -->
<!DOCTYPE svg PUBLIC "-//W3C//DTD SVG 1.1//EN" "http://www.w3.org/Graphics/SVG/1.1/DTD/svg11.dtd">
<svg version="1.1" id="圖層_1" xmlns="http://www.w3.org/2000/svg" xmlns:xlink="http://www.w3.org/1999/xlink" x="0px" y="0px"
	 width="1200px" height="600px" viewBox="0 0 1200 600" enable-background="new 0 0 1200 600" xml:space="preserve">
<g>
	<g>
		<rect x="833.346" y="431.758" fill="#5F3819" width="15.344" height="26.984"/>
		<polygon fill="#DFBD90" points="963.689,492.922 888.72,419.585 813.749,492.922 813.749,592.686 963.689,592.686 		"/>
		<polygon fill="#C1996C" points="963.689,501.443 963.689,492.922 888.72,419.585 813.749,492.922 813.749,501.443 888.72,427.899 
					"/>
		<g>
			<path fill="#C1996C" d="M967.55,599.712v-3.783c0-1.791-1.595-3.243-3.563-3.243H813.452c-1.968,0-3.563,1.452-3.563,3.243v3.783
				H967.55z"/>
			<rect x="809.889" y="598.309" fill="#896139" width="157.661" height="1.403"/>
		</g>
		<g>
			<g>
				<rect x="832.181" y="524.95" fill="#9DD0E5" width="26.864" height="36.834"/>
				<path fill="#734C23" d="M828.619,521.386v43.961h33.989v-43.961H828.619z M859.046,561.784h-26.864V524.95h26.864V561.784z"/>
			</g>
			<polygon opacity="0.3" fill="#F1F1F1" points="859.046,525.875 832.181,546.529 832.181,552.491 859.046,531.836 			"/>
			<polygon opacity="0.3" fill="#F1F1F1" points="859.046,535.169 832.181,555.824 832.181,561.784 859.046,541.131 			"/>
		</g>
		<g>
			<g>
				<rect x="862.608" y="524.95" fill="#9DD0E5" width="26.864" height="36.834"/>
				<path fill="#734C23" d="M859.046,521.386v43.961h33.989v-43.961H859.046z M889.472,561.784h-26.864V524.95h26.864V561.784z"/>
			</g>
			<polygon opacity="0.3" fill="#F1F1F1" points="889.472,525.875 862.608,546.529 862.608,552.491 889.472,531.836 			"/>
			<polygon opacity="0.3" fill="#F1F1F1" points="889.472,535.169 862.608,555.824 862.608,561.784 889.472,541.131 			"/>
		</g>
		<g>
			<g>
				<rect x="879.084" y="460.974" fill="#9DD0E5" width="19.271" height="26.424"/>
				<path fill="#734C23" d="M876.527,458.417v31.536h24.384v-31.536H876.527z M898.355,487.398h-19.271v-26.424h19.271V487.398z"/>
			</g>
			<polygon opacity="0.3" fill="#F1F1F1" points="898.355,461.639 879.084,476.456 879.084,480.73 898.355,465.914 			"/>
			<polygon opacity="0.3" fill="#F1F1F1" points="898.355,468.306 879.084,483.121 879.084,487.398 898.355,472.581 			"/>
		</g>
		<g>
			<g>
				<rect x="904.456" y="513.113" fill="#C1996C" width="31.473" height="79.573"/>
				<polygon fill="#734C23" points="902.675,511.331 902.675,594.467 906.239,594.467 906.239,590.905 906.237,590.905 
					906.237,514.894 934.147,514.894 934.147,590.905 934.127,590.905 934.127,594.467 937.71,594.467 937.71,511.331 				"/>
			</g>
			<rect x="900.15" y="592.686" fill="#5F3819" width="40.083" height="7.026"/>
			<g>
				<path fill="#A27A51" d="M930.732,546.095c-3.514,0.118-7.027,0.175-10.54,0.259c-3.514,0.077-7.027,0.104-10.541,0.158
					l-0.412,0.007l-0.005-0.424l-0.086-6.643l-0.03-6.644l-0.06-13.286l-0.003-0.596l0.596,0.003l21.081,0.099l0.501,0.002
					l-0.007,0.492l-0.182,13.287l-0.14,6.643L930.732,546.095z M930.732,546.095l-0.173-6.643l-0.14-6.643l-0.182-13.287
					l0.494,0.494l-21.081,0.099l0.593-0.593l-0.06,13.286l-0.03,6.644l-0.086,6.643l-0.417-0.417
					c3.514,0.055,7.027,0.081,10.541,0.158C923.705,545.92,927.219,545.977,930.732,546.095z"/>
			</g>
			<g>
				<path fill="#A27A51" d="M930.732,586.078c-3.514,0.118-7.027,0.175-10.54,0.259c-3.514,0.077-7.027,0.104-10.541,0.158
					l-0.412,0.007l-0.005-0.424l-0.086-6.643l-0.03-6.643l-0.06-13.286l-0.003-0.596l0.596,0.003l21.081,0.099l0.501,0.002
					l-0.007,0.492l-0.182,13.286l-0.14,6.643L930.732,586.078z M930.732,586.078l-0.173-6.643l-0.14-6.643l-0.182-13.286
					l0.494,0.494l-21.081,0.099l0.593-0.593l-0.06,13.286l-0.03,6.643l-0.086,6.643l-0.417-0.417
					c3.514,0.055,7.027,0.081,10.541,0.158C923.705,585.904,927.219,585.96,930.732,586.078z"/>
			</g>
			<circle fill="#734C23" cx="929.992" cy="554.113" r="1.759"/>
		</g>
		<polygon fill="#734C23" points="888.72,402.067 796.38,494.407 813.51,494.407 888.72,421.367 963.929,494.407 981.059,494.407 		
			"/>
		<path fill="#734C23" d="M852.645,431.164c0,1.968-1.595,3.564-3.562,3.564h-16.131c-1.968,0-3.563-1.596-3.563-3.564v-5.938
			c0-1.967,1.596-3.562,3.563-3.562h16.131c1.968,0,3.562,1.596,3.562,3.562V431.164z"/>
	</g>
	<g>
		<g>
			<g>
				<rect x="235.576" y="453.243" fill="#734C23" width="13.1" height="23.037"/>
				<polygon fill="#DFBD92" points="346.857,505.462 282.852,442.85 218.846,505.462 218.846,590.633 346.857,590.633 				"/>
				<polygon fill="#C1996C" points="346.857,512.734 346.857,505.462 282.852,442.85 218.846,505.462 218.846,512.734 
					282.852,449.948 				"/>
				<g>
					<path fill="#6CAC37" d="M350.152,596.632v-3.23c0-1.53-1.361-2.77-3.042-2.77H218.592c-1.679,0-3.041,1.24-3.041,2.77v3.23
						H350.152z"/>
					<rect x="215.551" y="595.434" fill="#322D2D" width="134.601" height="1.198"/>
				</g>
				<g>
					<g>
						<rect x="234.583" y="524.691" fill="#9DD0E5" width="22.934" height="31.449"/>
						<path fill="#896139" d="M231.541,521.65v37.532h29.019V521.65H231.541z M257.518,556.14h-22.934v-31.449h22.934V556.14z"/>
					</g>
					<polygon opacity="0.3" fill="#F1F1F1" points="257.518,525.482 234.584,543.115 234.584,548.204 257.518,530.572 					"/>
					<polygon opacity="0.3" fill="#F1F1F1" points="257.518,533.417 234.584,551.051 234.584,556.14 257.518,538.507 					"/>
				</g>
				<g>
					<g>
						<rect x="296.286" y="522.698" fill="#A27A51" width="26.871" height="67.934"/>
						<polygon fill="#734C23" points="294.765,521.177 294.765,592.154 297.81,592.154 297.81,589.112 297.807,589.112 
							297.807,524.219 321.634,524.219 321.634,589.112 321.618,589.112 321.618,592.154 324.677,592.154 324.677,521.177 						"/>
					</g>
					<rect x="292.611" y="590.633" fill="#734C23" width="34.22" height="5.999"/>
					<g>
						<path fill="#C1996C" d="M318.72,550.857c-2.999,0.101-5.999,0.149-8.999,0.221l-8.999,0.136l-0.35,0.005l-0.006-0.361
							c-0.129-7.562-0.095-15.125-0.15-22.687l-0.004-0.509l0.51,0.003l17.998,0.084l0.428,0.002l-0.005,0.42l-0.156,11.344
							l-0.119,5.671L318.72,550.857z M318.72,550.857l-0.147-5.672l-0.119-5.671l-0.156-11.344l0.422,0.422l-17.998,0.084
							l0.506-0.506c-0.055,7.562-0.021,15.125-0.15,22.687l-0.356-0.356l8.999,0.136C312.72,550.708,315.72,550.756,318.72,550.857z
							"/>
					</g>
					<g>
						<path fill="#C1996C" d="M318.72,584.992c-2.999,0.101-5.999,0.149-8.999,0.221l-8.999,0.136l-0.35,0.005l-0.006-0.361
							c-0.129-7.562-0.095-15.124-0.15-22.685l-0.004-0.509l0.51,0.002l17.998,0.084l0.428,0.002l-0.006,0.42l-0.155,11.343
							l-0.119,5.671L318.72,584.992z M318.72,584.992l-0.147-5.671l-0.119-5.671l-0.155-11.343l0.422,0.422l-17.998,0.084
							l0.506-0.506c-0.055,7.562-0.021,15.124-0.15,22.685l-0.356-0.356l8.999,0.136C312.72,584.843,315.72,584.891,318.72,584.992z
							"/>
					</g>
					<circle fill="#1A1A1A" cx="318.086" cy="557.702" r="1.502"/>
				</g>
				<polygon fill="#896139" points="282.852,427.894 204.018,506.728 218.642,506.728 282.852,444.371 347.061,506.728 
					361.685,506.728 				"/>
				<path fill="#896139" d="M252.054,452.736c0,1.68-1.362,3.042-3.042,3.042H235.24c-1.679,0-3.041-1.362-3.041-3.042v-5.069
					c0-1.68,1.362-3.042,3.041-3.042h13.771c1.681,0,3.042,1.361,3.042,3.042V452.736z"/>
			</g>
			<g>
				<polygon fill="#707289" points="353.811,505.462 417.817,442.85 481.822,505.462 481.822,590.633 353.811,590.633 				"/>
				<polygon fill="#60517C" points="353.811,512.734 353.811,505.462 417.817,442.85 481.822,505.462 481.822,512.734 
					417.817,449.948 				"/>
				<g>
					<path fill="#6CAC37" d="M350.516,596.632v-3.23c0-1.53,1.362-2.77,3.042-2.77h128.518c1.68,0,3.041,1.24,3.041,2.77v3.23
						H350.516z"/>
					<rect x="350.516" y="595.434" fill="#322D2D" width="134.601" height="1.198"/>
				</g>
				<g>
					<g>
						<rect x="443.15" y="524.691" fill="#9DD0E5" width="22.934" height="31.449"/>
						<path fill="#1A1A1A" d="M440.108,521.65v37.532h29.018V521.65H440.108z M443.15,524.691h22.935v31.449H443.15V524.691z"/>
					</g>
					<polygon opacity="0.3" fill="#F1F1F1" points="443.15,525.482 466.085,543.115 466.085,548.204 443.15,530.572 					"/>
					<polygon opacity="0.3" fill="#F1F1F1" points="443.15,533.417 466.085,551.051 466.085,556.14 443.15,538.507 					"/>
				</g>
				<g>
					<g>
						<rect x="377.512" y="522.698" fill="#796F88" width="26.871" height="67.934"/>
						<polygon fill="#1A1A1A" points="405.903,521.177 405.903,592.154 402.858,592.154 402.858,589.112 402.861,589.112 
							402.861,524.219 379.034,524.219 379.034,589.112 379.05,589.112 379.05,592.154 375.991,592.154 375.991,521.177 						"/>
					</g>
					<rect x="373.836" y="590.633" fill="#1A1A1A" width="34.22" height="5.999"/>
					<g>
						<path fill="#602D88" d="M381.948,550.857c2.999-0.101,5.999-0.149,8.999-0.221l8.999-0.136l-0.357,0.356
							c-0.129-7.562-0.095-15.125-0.15-22.687l0.506,0.506l-17.998-0.084l0.422-0.422l-0.156,11.344l-0.119,5.671L381.948,550.857z
							 M381.948,550.857l-0.147-5.672l-0.119-5.671l-0.156-11.344l-0.005-0.42l0.428-0.002l17.998-0.084l0.51-0.003l-0.004,0.509
							c-0.055,7.562-0.021,15.125-0.15,22.687l-0.006,0.361l-0.35-0.005l-8.999-0.136
							C387.948,551.006,384.948,550.957,381.948,550.857z"/>
					</g>
					<g>
						<path fill="#602D88" d="M381.948,584.992c2.999-0.101,5.999-0.149,8.999-0.221l8.999-0.136l-0.357,0.356
							c-0.129-7.562-0.095-15.124-0.15-22.685l0.506,0.506l-17.998-0.084l0.422-0.422l-0.155,11.343l-0.119,5.671L381.948,584.992z
							 M381.948,584.992l-0.147-5.671l-0.119-5.671l-0.155-11.343l-0.006-0.42l0.428-0.002l17.998-0.084l0.51-0.002l-0.004,0.509
							c-0.055,7.562-0.021,15.124-0.15,22.685l-0.006,0.361l-0.35-0.005l-8.999-0.136
							C387.948,585.14,384.948,585.092,381.948,584.992z"/>
					</g>
					<circle fill="#1A1A1A" cx="382.582" cy="557.702" r="1.502"/>
				</g>
				<polygon fill="#1A1A1A" points="417.817,427.894 496.65,506.728 482.026,506.728 417.817,444.371 353.607,506.728 
					338.983,506.728 				"/>
			</g>
		</g>
		<g>
			<rect x="390.364" y="428.678" fill="#B7292D" width="15.344" height="26.984"/>
			<polygon fill="#F1F1F1" points="275.364,489.843 350.334,416.505 425.305,489.843 425.305,589.605 275.364,589.605 			"/>
			<polygon fill="#CBCBCB" points="275.364,498.361 275.364,489.843 350.334,416.505 425.305,489.843 425.305,498.361 
				350.334,424.819 			"/>
			<g>
				<path fill="#6CAC37" d="M271.504,596.632v-3.783c0-1.792,1.595-3.244,3.563-3.244h150.535c1.968,0,3.563,1.452,3.563,3.244
					v3.783H271.504z"/>
				<rect x="271.504" y="595.229" fill="#322D2D" width="157.661" height="1.403"/>
			</g>
			<g>
				<g>
					<g>
						<rect x="380.008" y="512.367" fill="#9DD0E5" width="26.864" height="36.836"/>
						<path fill="#1A1A1A" d="M376.445,508.804v43.962h33.99v-43.962H376.445z M380.008,512.367h26.864v36.836h-26.864V512.367z"/>
					</g>
					<polygon opacity="0.3" fill="#F1F1F1" points="380.008,513.294 406.872,533.947 406.872,539.908 380.008,519.254 					"/>
					<polygon opacity="0.3" fill="#F1F1F1" points="380.008,522.587 406.872,543.242 406.872,549.203 380.008,528.549 					"/>
				</g>
				<g>
					<g>
						<rect x="349.582" y="512.367" fill="#9DD0E5" width="26.863" height="36.836"/>
						<path fill="#1A1A1A" d="M346.018,508.804v43.962h33.989v-43.962H346.018z M349.582,512.367h26.863v36.836h-26.863V512.367z"/>
					</g>
					<polygon opacity="0.3" fill="#F1F1F1" points="349.582,513.294 376.445,533.947 376.445,539.908 349.582,519.254 					"/>
					<polygon opacity="0.3" fill="#F1F1F1" points="349.582,522.587 376.445,543.242 376.445,549.203 349.582,528.549 					"/>
				</g>
			</g>
			<g>
				<g>
					<rect x="303.125" y="510.033" fill="#493D47" width="31.473" height="79.572"/>
					<polygon fill="#1A1A1A" points="336.379,508.251 336.379,591.386 332.814,591.386 332.814,587.823 332.816,587.823 
						332.816,511.814 304.906,511.814 304.906,587.823 304.926,587.823 304.926,591.386 301.343,591.386 301.343,508.251 					"/>
				</g>
				<rect x="298.82" y="589.605" fill="#1A1A1A" width="40.083" height="7.027"/>
				<g>
					<path fill="#796F87" d="M308.321,543.014c3.514-0.118,7.027-0.175,10.54-0.259c3.514-0.078,7.027-0.104,10.54-0.159
						l-0.417,0.417l-0.086-6.643l-0.03-6.643l-0.06-13.286l0.593,0.593l-21.081-0.099l0.495-0.495l-0.183,13.286l-0.139,6.643
						L308.321,543.014z M308.321,543.014l-0.173-6.643l-0.139-6.643l-0.183-13.286l-0.006-0.492l0.501-0.002l21.081-0.099
						l0.596-0.002l-0.002,0.596l-0.06,13.286l-0.03,6.643l-0.086,6.643l-0.006,0.424l-0.412-0.006
						c-3.514-0.055-7.027-0.081-10.54-0.159C315.348,543.189,311.835,543.132,308.321,543.014z"/>
				</g>
				<g>
					<path fill="#796F87" d="M308.321,582.997c3.514-0.118,7.027-0.175,10.54-0.259c3.514-0.078,7.027-0.104,10.54-0.159
						l-0.417,0.417l-0.086-6.643l-0.03-6.643l-0.06-13.286l0.593,0.593l-21.081-0.099l0.495-0.495l-0.183,13.286l-0.139,6.643
						L308.321,582.997z M308.321,582.997l-0.173-6.643l-0.139-6.643l-0.183-13.286l-0.006-0.492l0.501-0.003l21.081-0.099
						l0.596-0.002l-0.002,0.596l-0.06,13.286l-0.03,6.643l-0.086,6.643l-0.006,0.424l-0.412-0.006
						c-3.514-0.055-7.027-0.081-10.54-0.159C315.348,583.172,311.835,583.115,308.321,582.997z"/>
				</g>
				<circle fill="#1A1A1A" cx="309.062" cy="551.033" r="1.759"/>
			</g>
			<polygon fill="#DD2726" points="350.334,398.987 442.674,491.327 425.543,491.327 350.334,418.286 275.125,491.327 
				257.994,491.327 			"/>
			<path fill="#DD2726" d="M386.408,428.085c0,1.967,1.595,3.562,3.563,3.562h16.131c1.968,0,3.563-1.595,3.563-3.562v-5.938
				c0-1.968-1.595-3.563-3.563-3.563h-16.131c-1.968,0-3.563,1.595-3.563,3.563V428.085z"/>
		</g>
	</g>
	<g>
		<polygon fill="#41210D" points="740.179,434.553 748.493,596.482 731.865,596.482 		"/>
		<g>
			<circle fill="#87BC43" cx="749.706" cy="498.798" r="10.947"/>
			<circle fill="#87BC43" cx="716.622" cy="493.034" r="15.451"/>
			<circle fill="#87BC43" cx="731.181" cy="504.876" r="16.879"/>
			<circle fill="#87BC43" cx="747.14" cy="471.136" r="19.5"/>
			<circle fill="#87BC43" cx="700.314" cy="481.562" r="13.989"/>
			<circle fill="#87BC43" cx="747.14" cy="540.838" r="13.988"/>
			<circle fill="#87BC43" cx="740.311" cy="551.137" r="7.894"/>
			<circle fill="#87BC43" cx="758.745" cy="553.343" r="7.895"/>
			<circle fill="#87BC43" cx="761.129" cy="538.175" r="7.894"/>
			<circle fill="#87BC43" cx="732.416" cy="538.175" r="7.895"/>
			<circle fill="#87BC43" cx="713.977" cy="479.372" r="13.663"/>
			<circle fill="#87BC43" cx="716.462" cy="464.299" r="18.557"/>
			<circle fill="#87BC43" cx="723.64" cy="446.926" r="12.374"/>
			<circle fill="#87BC43" cx="719.779" cy="443.66" r="15.639"/>
			<circle fill="#87BC43" cx="722.438" cy="424.607" r="8.462"/>
			<circle fill="#87BC43" cx="738.091" cy="444.848" r="14.453"/>
			<circle fill="#87BC43" cx="738.758" cy="424.635" r="13.835"/>
			<circle fill="#87BC43" cx="733.34" cy="455.962" r="15.174"/>
			<circle fill="#87BC43" cx="733.36" cy="479.74" r="19.058"/>
		</g>
		<path fill="#87BC43" d="M575.895,485.912c2.635-2.52,4.284-6.061,4.284-9.994c0-7.64-6.194-13.834-13.836-13.834
			c-5.008,0-9.38,2.67-11.809,6.654c-1.306-0.825-2.851-1.311-4.511-1.311c-4.673,0-8.462,3.788-8.462,8.463
			c0,1.505,0.398,2.916,1.087,4.142c-6.332,2-10.923,7.918-10.923,14.911c0,2.071,0.412,4.043,1.143,5.852
			c-4.474,3.388-7.378,8.741-7.378,14.786c0,1.179,0.122,2.328,0.332,3.445c-6.737,1.005-11.911,6.8-11.911,13.817
			c0,6.437,4.352,11.842,10.269,13.473c-0.024,0.393-0.06,0.783-0.06,1.182c0,4.843,1.776,9.264,4.698,12.674
			c-0.031,0.405-0.062,0.812-0.062,1.225c0,8.534,6.917,15.451,15.451,15.451c1.264,0,2.488-0.168,3.664-0.456
			c1.181,4.772,5.479,8.315,10.616,8.315c6.045,0,10.946-4.9,10.946-10.946c0-1.4-0.272-2.734-0.751-3.965
			c4.213-3.068,6.963-8.027,6.963-13.638c0-3.717-1.215-7.141-3.25-9.929c4.612-3.477,7.608-8.986,7.608-15.208
			c0-5.921-2.7-11.211-6.936-14.707c1.895-2.531,3.031-5.664,3.031-9.07c0-0.357-0.029-0.708-0.053-1.06
			c2.523-2.602,4.083-6.145,4.083-10.056C580.129,492.141,578.511,488.528,575.895,485.912z"/>
		<g>
			<g>
				<g>
					<polygon fill="#EDBA5A" points="716.523,597.184 716.523,550.141 720.959,544.202 725.391,550.141 725.391,597.184 					"/>
					<polygon fill="#EDBA5A" points="734.294,597.184 734.294,550.141 738.727,544.202 743.162,550.141 743.162,597.184 					"/>
					<polygon fill="#EDBA5A" points="752.062,597.184 752.062,550.141 756.498,544.202 760.93,550.141 760.93,597.184 					"/>
				</g>
				<g>
					<rect x="705.05" y="559.073" fill="#EDBA5A" width="67.353" height="8.869"/>
					<rect x="705.05" y="567.943" fill="#CBCBCB" width="67.353" height="1.279"/>
					<rect x="705.05" y="579.678" fill="#EDBA5A" width="67.353" height="8.869"/>
					<rect x="705.05" y="588.547" fill="#CBCBCB" width="67.353" height="1.279"/>
				</g>
			</g>
			<g>
				<g>
					<polygon fill="#EDBA5A" points="515.251,597.184 515.251,550.141 519.684,544.202 524.119,550.141 524.119,597.184 					"/>
					<polygon fill="#EDBA5A" points="533.02,597.184 533.02,550.141 537.455,544.202 541.888,550.141 541.888,597.184 					"/>
					<polygon fill="#EDBA5A" points="550.79,597.184 550.79,550.141 555.223,544.202 559.658,550.141 559.658,597.184 					"/>
				</g>
				<g>
					<rect x="503.779" y="559.073" fill="#EDBA5A" width="67.353" height="8.869"/>
					<rect x="503.779" y="567.943" fill="#CBCBCB" width="67.353" height="1.279"/>
					<rect x="503.779" y="579.678" fill="#EDBA5A" width="67.353" height="8.869"/>
					<rect x="503.779" y="588.547" fill="#CBCBCB" width="67.353" height="1.279"/>
				</g>
			</g>
		</g>
		<g>
			<g>
				<defs>
					<polygon id="SVGID_1_" points="713.061,490.394 638.091,417.057 563.12,490.394 563.12,590.157 713.061,590.157 					"/>
				</defs>
				<clipPath id="SVGID_2_">
					<use xlink:href="#SVGID_1_"  overflow="visible"/>
				</clipPath>
				<rect x="562.972" y="583.549" clip-path="url(#SVGID_2_)" fill="#EACB84" width="150.238" height="6.608"/>
				<rect x="562.972" y="581.789" clip-path="url(#SVGID_2_)" fill="#CBAC62" width="150.238" height="1.76"/>
				<rect x="562.972" y="575.182" clip-path="url(#SVGID_2_)" fill="#EACB84" width="150.238" height="6.608"/>
				<rect x="562.972" y="573.423" clip-path="url(#SVGID_2_)" fill="#CBAC62" width="150.238" height="1.759"/>
				<rect x="562.972" y="566.815" clip-path="url(#SVGID_2_)" fill="#EACB84" width="150.238" height="6.608"/>
				<rect x="562.972" y="565.056" clip-path="url(#SVGID_2_)" fill="#CBAC62" width="150.238" height="1.759"/>
				<rect x="562.972" y="558.448" clip-path="url(#SVGID_2_)" fill="#EACB84" width="150.238" height="6.608"/>
				<rect x="562.972" y="556.689" clip-path="url(#SVGID_2_)" fill="#CBAC62" width="150.238" height="1.76"/>
				<rect x="562.972" y="550.081" clip-path="url(#SVGID_2_)" fill="#EACB84" width="150.238" height="6.607"/>
				<rect x="562.972" y="548.322" clip-path="url(#SVGID_2_)" fill="#CBAC62" width="150.238" height="1.76"/>
				<rect x="562.972" y="541.714" clip-path="url(#SVGID_2_)" fill="#EACB84" width="150.238" height="6.607"/>
				<rect x="562.972" y="539.955" clip-path="url(#SVGID_2_)" fill="#CBAC62" width="150.238" height="1.759"/>
				<rect x="562.972" y="533.348" clip-path="url(#SVGID_2_)" fill="#EACB84" width="150.238" height="6.607"/>
				<rect x="562.972" y="531.588" clip-path="url(#SVGID_2_)" fill="#CBAC62" width="150.238" height="1.76"/>
				<rect x="562.972" y="524.981" clip-path="url(#SVGID_2_)" fill="#EACB84" width="150.238" height="6.607"/>
				<rect x="562.972" y="523.221" clip-path="url(#SVGID_2_)" fill="#CBAC62" width="150.238" height="1.76"/>
				<rect x="562.972" y="516.614" clip-path="url(#SVGID_2_)" fill="#EACB84" width="150.238" height="6.607"/>
				<rect x="562.972" y="514.855" clip-path="url(#SVGID_2_)" fill="#CBAC62" width="150.238" height="1.759"/>
				<rect x="562.972" y="508.247" clip-path="url(#SVGID_2_)" fill="#EACB84" width="150.238" height="6.607"/>
				<rect x="562.972" y="506.488" clip-path="url(#SVGID_2_)" fill="#CBAC62" width="150.238" height="1.76"/>
				<rect x="562.972" y="499.88" clip-path="url(#SVGID_2_)" fill="#EACB84" width="150.238" height="6.607"/>
				<rect x="562.972" y="498.12" clip-path="url(#SVGID_2_)" fill="#CBAC62" width="150.238" height="1.76"/>
				<rect x="562.972" y="491.513" clip-path="url(#SVGID_2_)" fill="#EACB84" width="150.238" height="6.607"/>
				<rect x="562.972" y="489.753" clip-path="url(#SVGID_2_)" fill="#CBAC62" width="150.238" height="1.76"/>
				<rect x="562.972" y="483.146" clip-path="url(#SVGID_2_)" fill="#EACB84" width="150.238" height="6.607"/>
				<rect x="562.972" y="481.387" clip-path="url(#SVGID_2_)" fill="#CBAC62" width="150.238" height="1.759"/>
				<rect x="562.972" y="474.78" clip-path="url(#SVGID_2_)" fill="#EACB84" width="150.238" height="6.607"/>
				<rect x="562.972" y="473.02" clip-path="url(#SVGID_2_)" fill="#CBAC62" width="150.238" height="1.76"/>
				<rect x="562.972" y="466.412" clip-path="url(#SVGID_2_)" fill="#EACB84" width="150.238" height="6.607"/>
				<rect x="562.972" y="464.653" clip-path="url(#SVGID_2_)" fill="#CBAC62" width="150.238" height="1.76"/>
				<rect x="562.972" y="458.045" clip-path="url(#SVGID_2_)" fill="#EACB84" width="150.238" height="6.607"/>
				<rect x="562.972" y="456.286" clip-path="url(#SVGID_2_)" fill="#CBAC62" width="150.238" height="1.759"/>
				<rect x="562.972" y="449.679" clip-path="url(#SVGID_2_)" fill="#EACB84" width="150.238" height="6.607"/>
				<rect x="562.972" y="447.919" clip-path="url(#SVGID_2_)" fill="#CBAC62" width="150.238" height="1.76"/>
				<rect x="562.972" y="441.312" clip-path="url(#SVGID_2_)" fill="#EACB84" width="150.238" height="6.607"/>
				<rect x="562.972" y="439.552" clip-path="url(#SVGID_2_)" fill="#CBAC62" width="150.238" height="1.76"/>
				<rect x="562.972" y="432.945" clip-path="url(#SVGID_2_)" fill="#EACB84" width="150.238" height="6.608"/>
				<rect x="562.972" y="431.186" clip-path="url(#SVGID_2_)" fill="#CBAC62" width="150.238" height="1.759"/>
				<rect x="562.972" y="424.577" clip-path="url(#SVGID_2_)" fill="#EACB84" width="150.238" height="6.608"/>
				<rect x="562.972" y="422.819" clip-path="url(#SVGID_2_)" fill="#CBAC62" width="150.238" height="1.759"/>
				<rect x="562.972" y="416.211" clip-path="url(#SVGID_2_)" fill="#EACB84" width="150.238" height="6.608"/>
				<rect x="562.972" y="414.451" clip-path="url(#SVGID_2_)" fill="#CBAC62" width="150.238" height="1.76"/>
			</g>
			<rect x="582.716" y="429.23" fill="#1A1A1A" width="15.345" height="26.984"/>
			<polygon opacity="0.5" fill="#B2B2B2" points="713.061,498.912 713.061,490.394 638.091,417.057 563.12,490.394 563.12,498.912 
				638.091,425.37 			"/>
			<g>
				<path fill="#4E4D4D" d="M716.922,597.184v-3.783c0-1.792-1.595-3.244-3.564-3.244H562.823c-1.968,0-3.563,1.452-3.563,3.244
					v3.783H716.922z"/>
				<rect x="559.26" y="595.781" fill="#1A1A1A" width="157.661" height="1.403"/>
			</g>
			<g>
				<g>
					<rect x="622.428" y="510.584" fill="#B7292D" width="31.473" height="79.572"/>
					<polygon fill="#4E4D4D" points="620.647,508.802 620.647,591.938 624.213,591.938 624.213,588.375 624.211,588.375 
						624.211,512.365 652.12,512.365 652.12,588.375 652.1,588.375 652.1,591.938 655.683,591.938 655.683,508.802 					"/>
				</g>
				<rect x="618.124" y="590.157" fill="#1A1A1A" width="40.083" height="7.027"/>
				<g>
					<path fill="#B7292D" d="M648.706,543.566c-3.513,0.118-7.027,0.175-10.54,0.259c-3.513,0.078-7.027,0.104-10.54,0.159
						l-0.412,0.006l-0.005-0.424l-0.086-6.643l-0.03-6.643l-0.06-13.286l-0.003-0.596l0.596,0.003l21.081,0.099l0.501,0.002
						l-0.007,0.492l-0.182,13.286l-0.139,6.643L648.706,543.566z M648.706,543.566l-0.173-6.643l-0.139-6.643l-0.182-13.286
						l0.494,0.494l-21.081,0.099l0.593-0.593l-0.06,13.286l-0.03,6.643l-0.086,6.643l-0.417-0.417
						c3.513,0.055,7.027,0.081,10.54,0.159C641.679,543.391,645.192,543.448,648.706,543.566z"/>
				</g>
				<g>
					<path fill="#B7292D" d="M648.706,583.549c-3.513,0.118-7.027,0.175-10.54,0.259c-3.513,0.078-7.027,0.104-10.54,0.159
						l-0.412,0.006l-0.005-0.424l-0.086-6.643l-0.03-6.643l-0.06-13.286l-0.003-0.596l0.596,0.003l21.081,0.099l0.501,0.002
						l-0.007,0.492l-0.182,13.286l-0.139,6.643L648.706,583.549z M648.706,583.549l-0.173-6.643l-0.139-6.643l-0.182-13.286
						l0.494,0.494l-21.081,0.099l0.593-0.593l-0.06,13.286l-0.03,6.643l-0.086,6.643l-0.417-0.417
						c3.513,0.055,7.027,0.081,10.54,0.159C641.679,583.374,645.192,583.431,648.706,583.549z"/>
				</g>
				<circle fill="#1A1A1A" cx="647.965" cy="551.584" r="1.76"/>
			</g>
			<polygon fill="#B7292D" points="638.091,399.538 545.751,491.878 562.882,491.878 638.091,418.838 713.3,491.878 730.43,491.878 
							"/>
			<path fill="#B7292D" d="M602.017,428.636c0,1.968-1.595,3.564-3.563,3.564h-16.131c-1.968,0-3.563-1.596-3.563-3.564v-5.938
				c0-1.968,1.595-3.562,3.563-3.562h16.131c1.968,0,3.563,1.595,3.563,3.562V428.636z"/>
			<g>
				<circle fill="#9DD0E5" cx="638.09" cy="473.895" r="21.349"/>
				<g>
					<rect x="636.309" y="452.545" fill="#4E4D4D" width="3.563" height="42.699"/>
				</g>
				<g>
					<rect x="616.741" y="472.113" fill="#4E4D4D" width="42.7" height="3.563"/>
				</g>
				<path fill="#1A1A1A" d="M614.96,473.895c0-12.755,10.377-23.131,23.131-23.131c12.755,0,23.131,10.376,23.131,23.131
					c0,12.755-10.376,23.131-23.131,23.131C625.337,497.026,614.96,486.65,614.96,473.895z M618.523,473.895
					c0,10.79,8.779,19.568,19.568,19.568c10.79,0,19.567-8.778,19.567-19.568c0-10.79-8.777-19.567-19.567-19.567
					C627.301,454.327,618.523,463.105,618.523,473.895z"/>
			</g>
			<g>
				<g>
					<g>
						<g>
							<rect x="579.208" y="522.42" fill="#9DD0E5" width="26.864" height="36.835"/>
							<path fill="#4E4D4D" d="M575.645,518.857v43.962h33.99v-43.962H575.645z M606.072,559.255h-26.864V522.42h26.864V559.255z"/>
						</g>
						<polygon opacity="0.3" fill="#F1F1F1" points="606.072,523.347 579.208,543.999 579.208,549.961 606.072,529.307 						"/>
						<polygon opacity="0.3" fill="#F1F1F1" points="606.072,532.64 579.208,553.294 579.208,559.255 606.072,538.602 						"/>
					</g>
					<rect x="572.44" y="551.137" fill="#1A1A1A" width="40.401" height="11.682"/>
				</g>
				<g>
					<g>
						<g>
							<rect x="670.11" y="522.42" fill="#9DD0E5" width="26.863" height="36.835"/>
							<path fill="#4E4D4D" d="M666.547,518.857v43.962h33.99v-43.962H666.547z M696.973,559.255H670.11V522.42h26.863V559.255z"/>
						</g>
						<polygon opacity="0.3" fill="#F1F1F1" points="696.973,523.347 670.11,543.999 670.11,549.961 696.973,529.307 						"/>
						<polygon opacity="0.3" fill="#F1F1F1" points="696.973,532.64 670.11,553.294 670.11,559.255 696.973,538.602 						"/>
					</g>
					<rect x="663.341" y="551.137" fill="#1A1A1A" width="40.4" height="11.682"/>
				</g>
			</g>
			<g>
				<polygon fill="#A27A51" points="657.809,590.157 671.075,590.157 674.637,583.451 654.246,583.451 				"/>
				<path fill="#87BC43" d="M656.765,575.987c-0.016-0.13-0.024-0.262-0.024-0.395c0-1.789,1.414-3.283,3.304-3.658
					c0.522-0.629,1.355-1.042,2.303-1.042c1.231,0,2.271,0.691,2.676,1.657c0.867-1.005,2.232-1.657,3.77-1.657
					c2.621,0,4.747,1.884,4.747,4.206c0,0.535-0.118,1.047-0.325,1.518c0.964,0.454,1.627,1.341,1.627,2.376
					c0,0.422-0.12,0.817-0.315,1.174h-3.325h-1.936h-0.203h-3.416h-0.57h-0.385h-2.263h-0.063h-2.889h-1.683h-3.184
					c-0.354-0.437-0.568-0.968-0.568-1.545C654.042,577.237,655.24,576.114,656.765,575.987z"/>
				<rect x="652.788" y="580.086" fill="#C1996C" width="23.308" height="4.04"/>
			</g>
			<g>
				<polygon fill="#A27A51" points="605.107,590.157 618.373,590.157 621.936,583.451 601.544,583.451 				"/>
				<path fill="#87BC43" d="M604.063,575.987c-0.015-0.13-0.024-0.262-0.024-0.395c0-1.789,1.414-3.283,3.304-3.658
					c0.522-0.629,1.354-1.042,2.302-1.042c1.231,0,2.272,0.691,2.676,1.657c0.868-1.005,2.232-1.657,3.77-1.657
					c2.621,0,4.747,1.884,4.747,4.206c0,0.535-0.119,1.047-0.325,1.518c0.963,0.454,1.627,1.341,1.627,2.376
					c0,0.422-0.121,0.817-0.315,1.174h-3.325h-1.935h-0.203h-3.417h-0.569h-0.385h-2.263h-0.064h-2.888h-1.683h-3.184
					c-0.354-0.437-0.568-0.968-0.568-1.545C601.34,577.237,602.538,576.114,604.063,575.987z"/>
				<rect x="600.086" y="580.086" fill="#C1996C" width="23.307" height="4.04"/>
			</g>
		</g>
	</g>
</g>
</svg>
