<?xml version="1.0" encoding="utf-8"?>
<!-- Generator: Adobe Illustrator 17.0.0, SVG Export Plug-In . SVG Version: 6.00 Build 0)  -->
<!DOCTYPE svg PUBLIC "-//W3C//DTD SVG 1.1//EN" "http://www.w3.org/Graphics/SVG/1.1/DTD/svg11.dtd">
<svg version="1.1" id="圖層_1" xmlns="http://www.w3.org/2000/svg" xmlns:xlink="http://www.w3.org/1999/xlink" x="0px" y="0px"
	 width="1200px" height="600px" viewBox="0 0 1200 600" enable-background="new 0 0 1200 600" xml:space="preserve">
<g>
	<g opacity="0.6">
		<g>
			<rect x="950.948" y="248.988" fill="#5F3819" width="22.362" height="39.327"/>
			<polygon fill="#DFBD90" points="1140.909,338.128 1031.649,231.248 922.388,338.128 922.388,483.521 1140.909,483.521 			"/>
			<polygon fill="#C1996C" points="1140.909,350.545 1140.909,338.128 1031.649,231.248 922.388,338.128 922.388,350.545 
				1031.649,243.364 			"/>
			<g>
				<path fill="#C1996C" d="M1146.535,493.762v-5.514c0-2.61-2.324-4.727-5.193-4.727H921.955c-2.868,0-5.193,2.116-5.193,4.727
					v5.514H1146.535z"/>
				<rect x="916.762" y="491.716" fill="#896139" width="229.773" height="2.045"/>
			</g>
			<g>
				<g>
					<rect x="949.251" y="384.804" fill="#9DD0E5" width="39.152" height="53.681"/>
					<path fill="#734C23" d="M944.059,379.61v64.068h49.535V379.61H944.059z M988.403,438.485h-39.152v-53.681h39.152V438.485z"/>
				</g>
				<polygon opacity="0.3" fill="#F1F1F1" points="988.403,386.153 949.251,416.253 949.251,424.942 988.403,394.84 				"/>
				<polygon opacity="0.3" fill="#F1F1F1" points="988.403,399.698 949.251,429.799 949.251,438.485 988.403,408.387 				"/>
			</g>
			<g>
				<g>
					<rect x="993.595" y="384.804" fill="#9DD0E5" width="39.151" height="53.681"/>
					<path fill="#734C23" d="M988.403,379.61v64.068h49.535V379.61H988.403z M1032.746,438.485h-39.151v-53.681h39.151V438.485z"/>
				</g>
				<polygon opacity="0.3" fill="#F1F1F1" points="1032.746,386.153 993.595,416.253 993.595,424.942 1032.746,394.84 				"/>
				<polygon opacity="0.3" fill="#F1F1F1" points="1032.746,399.698 993.595,429.799 993.595,438.485 1032.746,408.387 				"/>
			</g>
			<g>
				<g>
					<rect x="1017.606" y="291.567" fill="#9DD0E5" width="28.086" height="38.51"/>
					<path fill="#734C23" d="M1013.88,287.841v45.96h35.537v-45.96H1013.88z M1045.692,330.076h-28.086v-38.51h28.086V330.076z"/>
				</g>
				<polygon opacity="0.3" fill="#F1F1F1" points="1045.692,292.536 1017.606,314.129 1017.606,320.359 1045.692,298.767 				"/>
				<polygon opacity="0.3" fill="#F1F1F1" points="1045.692,302.252 1017.606,323.844 1017.606,330.076 1045.692,308.483 				"/>
			</g>
			<g>
				<g>
					<rect x="1054.583" y="367.553" fill="#C1996C" width="45.868" height="115.969"/>
					<polygon fill="#734C23" points="1051.987,364.956 1051.987,486.117 1057.182,486.117 1057.182,480.926 1057.179,480.926 
						1057.179,370.149 1097.855,370.149 1097.855,480.926 1097.825,480.926 1097.825,486.117 1103.047,486.117 1103.047,364.956 
											"/>
				</g>
				<rect x="1048.308" y="483.521" fill="#5F3819" width="58.416" height="10.24"/>
				<g>
					<path fill="#A27A51" d="M1092.878,415.621l-15.361,0.259l-15.361,0.159l-0.414,0.004l-0.004-0.422l-0.086-9.682l-0.03-9.682
						l-0.06-19.364l-0.002-0.595l0.595,0.002l30.723,0.099l0.499,0.002l-0.005,0.493l-0.182,19.364l-0.139,9.682L1092.878,415.621z
						 M1092.878,415.621l-0.173-9.682l-0.139-9.682l-0.182-19.364l0.494,0.494l-30.723,0.099l0.593-0.593l-0.06,19.364l-0.03,9.682
						l-0.086,9.682l-0.417-0.417l15.361,0.159L1092.878,415.621z"/>
				</g>
				<g>
					<path fill="#A27A51" d="M1092.878,473.892l-15.361,0.259l-15.361,0.159l-0.414,0.004l-0.004-0.422l-0.086-9.681l-0.03-9.681
						l-0.06-19.363l-0.002-0.595l0.595,0.002l30.723,0.099l0.499,0.002l-0.005,0.493l-0.182,19.363l-0.139,9.681L1092.878,473.892z
						 M1092.878,473.892l-0.173-9.681l-0.139-9.681l-0.182-19.363l0.494,0.494l-30.723,0.099l0.593-0.593l-0.06,19.363l-0.03,9.681
						l-0.086,9.681l-0.417-0.417l15.361,0.159L1092.878,473.892z"/>
				</g>
				<circle fill="#734C23" cx="1091.798" cy="427.306" r="2.564"/>
			</g>
			<polygon fill="#734C23" points="1031.649,205.716 897.075,340.291 922.039,340.291 1031.649,233.844 1141.257,340.291 
				1166.224,340.291 			"/>
			<path fill="#734C23" d="M979.075,248.123c0,2.868-2.324,5.193-5.192,5.193h-23.509c-2.868,0-5.193-2.326-5.193-5.193v-8.655
				c0-2.866,2.326-5.192,5.193-5.192h23.509c2.868,0,5.192,2.326,5.192,5.192V248.123z"/>
		</g>
		<g>
			<g>
				<g>
					<rect x="79.769" y="280.301" fill="#734C23" width="19.092" height="33.574"/>
					<polygon fill="#DFBD92" points="241.948,356.402 148.668,265.154 55.387,356.402 55.387,480.529 241.948,480.529 					"/>
					<polygon fill="#C1996C" points="241.948,367 241.948,356.402 148.668,265.154 55.387,356.402 55.387,367 148.668,275.497 					
						"/>
					<g>
						<path fill="#6CAC37" d="M246.75,489.273v-4.707c0-2.229-1.984-4.036-4.433-4.036h-187.3c-2.447,0-4.432,1.807-4.432,4.036
							v4.707H246.75z"/>
						<rect x="50.585" y="487.527" fill="#322D2D" width="196.165" height="1.746"/>
					</g>
					<g>
						<g>
							<rect x="78.323" y="384.427" fill="#9DD0E5" width="33.424" height="45.833"/>
							<path fill="#896139" d="M73.888,379.995v54.698h42.291v-54.698H73.888z M111.746,430.26H78.323v-45.833h33.424V430.26z"/>
						</g>
						<polygon opacity="0.3" fill="#F1F1F1" points="111.746,385.58 78.323,411.278 78.323,418.695 111.746,392.997 						"/>
						<polygon opacity="0.3" fill="#F1F1F1" points="111.746,397.144 78.323,422.843 78.323,430.26 111.746,404.562 						"/>
					</g>
					<g>
						<g>
							<rect x="168.246" y="381.523" fill="#A27A51" width="39.161" height="99.006"/>
							<polygon fill="#734C23" points="166.03,379.306 166.03,482.746 170.467,482.746 170.467,478.313 170.464,478.313 
								170.464,383.739 205.189,383.739 205.189,478.313 205.165,478.313 205.165,482.746 209.623,482.746 209.623,379.306 							
								"/>
						</g>
						<rect x="162.891" y="480.529" fill="#734C23" width="49.872" height="8.744"/>
						<g>
							<path fill="#C1996C" d="M200.941,422.56l-13.115,0.221l-13.115,0.135l-0.352,0.004l-0.004-0.36
								c-0.13-11.021-0.095-22.042-0.15-33.063l-0.003-0.508l0.509,0.002l26.23,0.084l0.426,0.001l-0.004,0.421l-0.156,16.532
								L200.941,422.56z M200.941,422.56l-0.267-16.532l-0.156-16.532l0.422,0.422l-26.23,0.084l0.506-0.506
								c-0.055,11.021-0.02,22.042-0.15,33.063l-0.356-0.356l13.115,0.135L200.941,422.56z"/>
						</g>
						<g>
							<path fill="#C1996C" d="M200.941,472.308l-13.115,0.221l-13.115,0.135l-0.352,0.004l-0.004-0.36
								c-0.13-11.02-0.095-22.04-0.15-33.061l-0.003-0.508l0.509,0.002l26.23,0.084l0.426,0.001l-0.004,0.421l-0.156,16.53
								L200.941,472.308z M200.941,472.308l-0.267-16.53l-0.156-16.53l0.422,0.422l-26.23,0.084l0.506-0.506
								c-0.055,11.02-0.02,22.04-0.15,33.061l-0.356-0.356l13.115,0.135L200.941,472.308z"/>
						</g>
						<circle fill="#1A1A1A" cx="200.018" cy="432.536" r="2.189"/>
					</g>
					<polygon fill="#896139" points="148.668,243.357 33.776,358.248 55.089,358.248 148.668,267.37 242.245,358.248 
						263.558,358.248 					"/>
					<path fill="#896139" d="M103.783,279.56c0,2.449-1.985,4.434-4.434,4.434h-20.07c-2.447,0-4.432-1.985-4.432-4.434v-7.388
						c0-2.449,1.985-4.433,4.432-4.433h20.07c2.449,0,4.434,1.984,4.434,4.433V279.56z"/>
				</g>
				<g>
					<polygon fill="#707289" points="252.083,356.402 345.364,265.154 438.644,356.402 438.644,480.529 252.083,480.529 					"/>
					<polygon fill="#60517C" points="252.083,367 252.083,356.402 345.364,265.154 438.644,356.402 438.644,367 345.364,275.497 
											"/>
					<g>
						<path fill="#6CAC37" d="M247.281,489.273v-4.707c0-2.229,1.985-4.036,4.433-4.036h187.3c2.448,0,4.432,1.807,4.432,4.036
							v4.707H247.281z"/>
						<rect x="247.281" y="487.527" fill="#322D2D" width="196.165" height="1.746"/>
					</g>
					<g>
						<g>
							<rect x="382.284" y="384.427" fill="#9DD0E5" width="33.424" height="45.833"/>
							<path fill="#1A1A1A" d="M377.851,379.995v54.698h42.291v-54.698H377.851z M382.284,384.427h33.424v45.833h-33.424V384.427z"
								/>
						</g>
						<polygon opacity="0.3" fill="#F1F1F1" points="382.284,385.58 415.709,411.278 415.709,418.695 382.284,392.997 						"/>
						<polygon opacity="0.3" fill="#F1F1F1" points="382.284,397.144 415.709,422.843 415.709,430.26 382.284,404.562 						"/>
					</g>
					<g>
						<g>
							<rect x="286.624" y="381.523" fill="#796F88" width="39.161" height="99.006"/>
							<polygon fill="#1A1A1A" points="328.001,379.306 328.001,482.746 323.563,482.746 323.563,478.313 323.567,478.313 
								323.567,383.739 288.842,383.739 288.842,478.313 288.865,478.313 288.865,482.746 284.408,482.746 284.408,379.306 							
								"/>
						</g>
						<rect x="281.267" y="480.529" fill="#1A1A1A" width="49.872" height="8.744"/>
						<g>
							<path fill="#602D88" d="M293.089,422.56l13.115-0.221l13.115-0.135l-0.356,0.356c-0.13-11.021-0.095-22.042-0.15-33.063
								l0.506,0.506l-26.23-0.084l0.422-0.422l-0.156,16.532L293.089,422.56z M293.089,422.56l-0.267-16.532l-0.156-16.532
								l-0.004-0.421l0.426-0.001l26.23-0.084l0.509-0.002l-0.003,0.508c-0.055,11.021-0.02,22.042-0.15,33.063l-0.004,0.36
								l-0.352-0.004l-13.115-0.135L293.089,422.56z"/>
						</g>
						<g>
							<path fill="#602D88" d="M293.089,472.308l13.115-0.221l13.115-0.135l-0.356,0.356c-0.13-11.02-0.095-22.04-0.15-33.061
								l0.506,0.506l-26.23-0.084l0.422-0.422l-0.156,16.53L293.089,472.308z M293.089,472.308l-0.267-16.53l-0.156-16.53
								l-0.004-0.421l0.426-0.001l26.23-0.084l0.509-0.002l-0.003,0.508c-0.055,11.02-0.02,22.04-0.15,33.061l-0.004,0.36
								l-0.352-0.004l-13.115-0.135L293.089,472.308z"/>
						</g>
						<circle fill="#1A1A1A" cx="294.012" cy="432.536" r="2.189"/>
					</g>
					<polygon fill="#1A1A1A" points="345.364,243.357 460.254,358.248 438.942,358.248 345.364,267.37 251.785,358.248 
						230.472,358.248 					"/>
				</g>
			</g>
			<g>
				<rect x="305.354" y="244.5" fill="#B7292D" width="22.362" height="39.326"/>
				<polygon fill="#F1F1F1" points="137.755,333.639 247.015,226.759 356.276,333.639 356.276,479.031 137.755,479.031 				"/>
				<polygon fill="#CBCBCB" points="137.755,346.054 137.755,333.639 247.015,226.759 356.276,333.639 356.276,346.054 
					247.015,238.875 				"/>
				<g>
					<path fill="#6CAC37" d="M132.13,489.273v-5.514c0-2.612,2.324-4.728,5.193-4.728h219.386c2.869,0,5.193,2.116,5.193,4.728
						v5.514H132.13z"/>
					<rect x="132.13" y="487.227" fill="#322D2D" width="229.772" height="2.045"/>
				</g>
				<g>
					<g>
						<g>
							<rect x="290.261" y="366.466" fill="#9DD0E5" width="39.151" height="53.684"/>
							<path fill="#1A1A1A" d="M285.069,361.273v64.069h49.536v-64.069H285.069z M290.261,366.466h39.151v53.684h-39.151V366.466z"
								/>
						</g>
						<polygon opacity="0.3" fill="#F1F1F1" points="290.261,367.817 329.412,397.916 329.412,406.604 290.261,376.503 						"/>
						<polygon opacity="0.3" fill="#F1F1F1" points="290.261,381.361 329.412,411.462 329.412,420.15 290.261,390.05 						"/>
					</g>
					<g>
						<g>
							<rect x="245.919" y="366.466" fill="#9DD0E5" width="39.15" height="53.684"/>
							<path fill="#1A1A1A" d="M240.726,361.273v64.069h49.535v-64.069H240.726z M245.919,366.466h39.15v53.684h-39.15V366.466z"/>
						</g>
						<polygon opacity="0.3" fill="#F1F1F1" points="245.919,367.817 285.069,397.916 285.069,406.604 245.919,376.503 						"/>
						<polygon opacity="0.3" fill="#F1F1F1" points="245.919,381.361 285.069,411.462 285.069,420.15 245.919,390.05 						"/>
					</g>
				</g>
				<g>
					<g>
						<rect x="178.214" y="363.064" fill="#493D47" width="45.868" height="115.967"/>
						<polygon fill="#1A1A1A" points="226.677,360.467 226.677,481.628 221.482,481.628 221.482,476.435 221.485,476.435 
							221.485,365.66 180.81,365.66 180.81,476.435 180.839,476.435 180.839,481.628 175.617,481.628 175.617,360.467 						"/>
					</g>
					<rect x="171.939" y="479.031" fill="#1A1A1A" width="58.416" height="10.241"/>
					<g>
						<path fill="#796F87" d="M185.786,411.13l15.361-0.259l15.361-0.159l-0.417,0.417l-0.086-9.681l-0.03-9.681l-0.06-19.363
							l0.593,0.593l-30.723-0.099l0.494-0.494l-0.182,19.363l-0.139,9.681L185.786,411.13z M185.786,411.13l-0.173-9.681
							l-0.139-9.681l-0.182-19.363l-0.005-0.493l0.499-0.002l30.723-0.099l0.595-0.002l-0.002,0.595l-0.06,19.363l-0.03,9.681
							l-0.086,9.681l-0.004,0.422l-0.414-0.004l-15.361-0.159L185.786,411.13z"/>
					</g>
					<g>
						<path fill="#796F87" d="M185.786,469.402l15.361-0.259l15.361-0.159l-0.417,0.417l-0.086-9.681l-0.03-9.681l-0.06-19.362
							l0.593,0.593l-30.723-0.099l0.494-0.494l-0.182,19.362l-0.139,9.681L185.786,469.402z M185.786,469.402l-0.173-9.681
							l-0.139-9.681l-0.182-19.362l-0.005-0.493l0.499-0.002l30.723-0.099l0.595-0.002l-0.002,0.595l-0.06,19.362l-0.03,9.681
							l-0.086,9.681l-0.004,0.422l-0.414-0.004l-15.361-0.159L185.786,469.402z"/>
					</g>
					<circle fill="#1A1A1A" cx="186.866" cy="422.817" r="2.564"/>
				</g>
				<polygon fill="#DD2726" points="247.015,201.228 381.59,335.803 356.624,335.803 247.015,229.355 137.406,335.803 
					112.441,335.803 				"/>
				<path fill="#DD2726" d="M299.589,243.635c0,2.867,2.324,5.192,5.193,5.192h23.509c2.869,0,5.193-2.325,5.193-5.192v-8.655
					c0-2.868-2.324-5.193-5.193-5.193h-23.509c-2.869,0-5.193,2.325-5.193,5.193V243.635z"/>
			</g>
		</g>
		<g>
			<polygon fill="#41210D" points="815.169,253.061 827.285,489.053 803.052,489.053 			"/>
			<g>
				<circle fill="#87BC43" cx="829.054" cy="346.691" r="15.954"/>
				<circle fill="#87BC43" cx="780.837" cy="338.291" r="22.518"/>
				<circle fill="#87BC43" cx="802.056" cy="355.549" r="24.599"/>
				<circle fill="#87BC43" cx="825.313" cy="306.377" r="28.42"/>
				<circle fill="#87BC43" cx="757.07" cy="321.571" r="20.387"/>
				<circle fill="#87BC43" cx="825.314" cy="407.959" r="20.386"/>
				<circle fill="#87BC43" cx="815.361" cy="422.969" r="11.505"/>
				<circle fill="#87BC43" cx="842.227" cy="426.184" r="11.506"/>
				<circle fill="#87BC43" cx="845.7" cy="404.078" r="11.505"/>
				<circle fill="#87BC43" cx="803.855" cy="404.078" r="11.506"/>
				<circle fill="#87BC43" cx="776.982" cy="318.38" r="19.912"/>
				<circle fill="#87BC43" cx="780.604" cy="296.413" r="27.045"/>
				<circle fill="#87BC43" cx="791.065" cy="271.094" r="18.033"/>
				<circle fill="#87BC43" cx="785.439" cy="266.334" r="22.792"/>
				<circle fill="#87BC43" cx="789.314" cy="238.566" r="12.332"/>
				<circle fill="#87BC43" cx="812.126" cy="268.065" r="21.063"/>
				<circle fill="#87BC43" cx="813.098" cy="238.607" r="20.163"/>
				<circle fill="#87BC43" cx="805.201" cy="284.263" r="22.114"/>
				<circle fill="#87BC43" cx="805.232" cy="318.915" r="27.775"/>
			</g>
			<path fill="#87BC43" d="M575.744,327.912c3.841-3.672,6.244-8.834,6.244-14.565c0-11.134-9.027-20.161-20.164-20.161
				c-7.298,0-13.671,3.891-17.21,9.698c-1.904-1.203-4.155-1.91-6.574-1.91c-6.81,0-12.332,5.521-12.332,12.334
				c0,2.193,0.58,4.25,1.584,6.036c-9.227,2.915-15.919,11.54-15.919,21.731c0,3.019,0.6,5.892,1.665,8.529
				c-6.52,4.937-10.752,12.739-10.752,21.549c0,1.718,0.177,3.393,0.483,5.021c-9.819,1.465-17.359,9.91-17.359,20.137
				c0,9.381,6.342,17.258,14.965,19.635c-0.035,0.573-0.088,1.141-0.088,1.722c0,7.058,2.588,13.501,6.847,18.471
				c-0.046,0.591-0.09,1.183-0.09,1.786c0,12.438,10.081,22.518,22.518,22.518c1.842,0,3.626-0.245,5.34-0.665
				c1.721,6.955,7.985,12.119,15.471,12.119c8.81,0,15.953-7.142,15.953-15.953c0-2.041-0.397-3.985-1.095-5.778
				c6.141-4.472,10.148-11.699,10.148-19.875c0-5.417-1.771-10.407-4.736-14.47c6.722-5.068,11.088-13.096,11.088-22.164
				c0-8.629-3.935-16.339-10.108-21.434c2.762-3.689,4.417-8.255,4.417-13.219c0-0.521-0.042-1.032-0.078-1.544
				c3.678-3.793,5.951-8.955,5.951-14.655C581.915,336.989,579.557,331.723,575.744,327.912z"/>
			<g>
				<g>
					<g>
						<polygon fill="#E5E5E4" points="780.693,490.077 780.693,421.517 787.157,412.863 793.617,421.517 793.617,490.077 						"/>
						<polygon fill="#E5E5E4" points="806.591,490.077 806.591,421.517 813.053,412.863 819.516,421.517 819.516,490.077 						"/>
						<polygon fill="#E5E5E4" points="832.487,490.077 832.487,421.517 838.951,412.863 845.411,421.517 845.411,490.077 						"/>
					</g>
					<g>
						<rect x="763.973" y="434.535" fill="#F1F1F1" width="98.158" height="12.926"/>
						<rect x="763.973" y="447.461" fill="#CBCBCB" width="98.158" height="1.864"/>
						<rect x="763.973" y="464.564" fill="#F1F1F1" width="98.158" height="12.926"/>
						<rect x="763.973" y="477.49" fill="#CBCBCB" width="98.158" height="1.864"/>
					</g>
				</g>
				<g>
					<g>
						<polygon fill="#E5E5E4" points="487.363,490.077 487.363,421.517 493.824,412.863 500.287,421.517 500.287,490.077 						"/>
						<polygon fill="#E5E5E4" points="513.258,490.077 513.258,421.517 519.722,412.863 526.183,421.517 526.183,490.077 						"/>
						<polygon fill="#E5E5E4" points="539.157,490.077 539.157,421.517 545.617,412.863 552.081,421.517 552.081,490.077 						"/>
					</g>
					<g>
						<rect x="470.643" y="434.535" fill="#F1F1F1" width="98.158" height="12.926"/>
						<rect x="470.643" y="447.461" fill="#CBCBCB" width="98.158" height="1.864"/>
						<rect x="470.643" y="464.564" fill="#F1F1F1" width="98.158" height="12.926"/>
						<rect x="470.643" y="477.49" fill="#CBCBCB" width="98.158" height="1.864"/>
					</g>
				</g>
			</g>
			<g>
				<g>
					<defs>
						<polygon id="SVGID_1_" points="775.648,334.443 666.387,227.563 557.126,334.443 557.126,479.835 775.648,479.835 						"/>
					</defs>
					<clipPath id="SVGID_2_">
						<use xlink:href="#SVGID_1_"  overflow="visible"/>
					</clipPath>
					<rect x="556.91" y="470.206" clip-path="url(#SVGID_2_)" fill="#EACB84" width="218.954" height="9.63"/>
					<rect x="556.91" y="467.641" clip-path="url(#SVGID_2_)" fill="#CBAC62" width="218.954" height="2.565"/>
					<rect x="556.91" y="458.011" clip-path="url(#SVGID_2_)" fill="#EACB84" width="218.954" height="9.63"/>
					<rect x="556.91" y="455.448" clip-path="url(#SVGID_2_)" fill="#CBAC62" width="218.954" height="2.563"/>
					<rect x="556.91" y="445.817" clip-path="url(#SVGID_2_)" fill="#EACB84" width="218.954" height="9.631"/>
					<rect x="556.91" y="443.254" clip-path="url(#SVGID_2_)" fill="#CBAC62" width="218.954" height="2.563"/>
					<rect x="556.91" y="433.624" clip-path="url(#SVGID_2_)" fill="#EACB84" width="218.954" height="9.63"/>
					<rect x="556.91" y="431.06" clip-path="url(#SVGID_2_)" fill="#CBAC62" width="218.954" height="2.565"/>
					<rect x="556.91" y="421.43" clip-path="url(#SVGID_2_)" fill="#EACB84" width="218.954" height="9.63"/>
					<rect x="556.91" y="418.866" clip-path="url(#SVGID_2_)" fill="#CBAC62" width="218.954" height="2.565"/>
					<rect x="556.91" y="409.236" clip-path="url(#SVGID_2_)" fill="#EACB84" width="218.954" height="9.63"/>
					<rect x="556.91" y="406.673" clip-path="url(#SVGID_2_)" fill="#CBAC62" width="218.954" height="2.563"/>
					<rect x="556.91" y="397.043" clip-path="url(#SVGID_2_)" fill="#EACB84" width="218.954" height="9.63"/>
					<rect x="556.91" y="394.479" clip-path="url(#SVGID_2_)" fill="#CBAC62" width="218.954" height="2.565"/>
					<rect x="556.91" y="384.849" clip-path="url(#SVGID_2_)" fill="#EACB84" width="218.954" height="9.63"/>
					<rect x="556.91" y="382.284" clip-path="url(#SVGID_2_)" fill="#CBAC62" width="218.954" height="2.565"/>
					<rect x="556.91" y="372.655" clip-path="url(#SVGID_2_)" fill="#EACB84" width="218.954" height="9.63"/>
					<rect x="556.91" y="370.092" clip-path="url(#SVGID_2_)" fill="#CBAC62" width="218.954" height="2.563"/>
					<rect x="556.91" y="360.462" clip-path="url(#SVGID_2_)" fill="#EACB84" width="218.954" height="9.63"/>
					<rect x="556.91" y="357.897" clip-path="url(#SVGID_2_)" fill="#CBAC62" width="218.954" height="2.565"/>
					<rect x="556.91" y="348.268" clip-path="url(#SVGID_2_)" fill="#EACB84" width="218.954" height="9.63"/>
					<rect x="556.91" y="345.703" clip-path="url(#SVGID_2_)" fill="#CBAC62" width="218.954" height="2.565"/>
					<rect x="556.91" y="336.074" clip-path="url(#SVGID_2_)" fill="#EACB84" width="218.954" height="9.63"/>
					<rect x="556.91" y="333.509" clip-path="url(#SVGID_2_)" fill="#CBAC62" width="218.954" height="2.565"/>
					<rect x="556.91" y="323.88" clip-path="url(#SVGID_2_)" fill="#EACB84" width="218.954" height="9.63"/>
					<rect x="556.91" y="321.316" clip-path="url(#SVGID_2_)" fill="#CBAC62" width="218.954" height="2.563"/>
					<rect x="556.91" y="311.687" clip-path="url(#SVGID_2_)" fill="#EACB84" width="218.954" height="9.63"/>
					<rect x="556.91" y="309.122" clip-path="url(#SVGID_2_)" fill="#CBAC62" width="218.954" height="2.565"/>
					<rect x="556.91" y="299.493" clip-path="url(#SVGID_2_)" fill="#EACB84" width="218.954" height="9.63"/>
					<rect x="556.91" y="296.928" clip-path="url(#SVGID_2_)" fill="#CBAC62" width="218.954" height="2.565"/>
					<rect x="556.91" y="287.298" clip-path="url(#SVGID_2_)" fill="#EACB84" width="218.954" height="9.63"/>
					<rect x="556.91" y="284.735" clip-path="url(#SVGID_2_)" fill="#CBAC62" width="218.954" height="2.563"/>
					<rect x="556.91" y="275.106" clip-path="url(#SVGID_2_)" fill="#EACB84" width="218.954" height="9.63"/>
					<rect x="556.91" y="272.541" clip-path="url(#SVGID_2_)" fill="#CBAC62" width="218.954" height="2.565"/>
					<rect x="556.91" y="262.911" clip-path="url(#SVGID_2_)" fill="#EACB84" width="218.954" height="9.63"/>
					<rect x="556.91" y="260.347" clip-path="url(#SVGID_2_)" fill="#CBAC62" width="218.954" height="2.565"/>
					<rect x="556.91" y="250.717" clip-path="url(#SVGID_2_)" fill="#EACB84" width="218.954" height="9.63"/>
					<rect x="556.91" y="248.154" clip-path="url(#SVGID_2_)" fill="#CBAC62" width="218.954" height="2.563"/>
					<rect x="556.91" y="238.523" clip-path="url(#SVGID_2_)" fill="#EACB84" width="218.954" height="9.631"/>
					<rect x="556.91" y="235.96" clip-path="url(#SVGID_2_)" fill="#CBAC62" width="218.954" height="2.563"/>
					<rect x="556.91" y="226.33" clip-path="url(#SVGID_2_)" fill="#EACB84" width="218.954" height="9.63"/>
					<rect x="556.91" y="223.766" clip-path="url(#SVGID_2_)" fill="#CBAC62" width="218.954" height="2.565"/>
				</g>
				<rect x="585.686" y="245.303" fill="#1A1A1A" width="22.363" height="39.327"/>
				<polygon opacity="0.5" fill="#B2B2B2" points="775.648,346.858 775.648,334.443 666.387,227.563 557.126,334.443 
					557.126,346.858 666.387,239.679 				"/>
				<g>
					<path fill="#4E4D4D" d="M781.274,490.077v-5.514c0-2.612-2.324-4.728-5.193-4.728H556.694c-2.868,0-5.193,2.116-5.193,4.728
						v5.514H781.274z"/>
					<rect x="551.501" y="488.032" fill="#1A1A1A" width="229.773" height="2.045"/>
				</g>
				<g>
					<g>
						<rect x="643.561" y="363.868" fill="#B7292D" width="45.868" height="115.967"/>
						<polygon fill="#4E4D4D" points="640.965,361.271 640.965,482.431 646.161,482.431 646.161,477.239 646.158,477.239 
							646.158,366.464 686.833,366.464 686.833,477.239 686.804,477.239 686.804,482.431 692.026,482.431 692.026,361.271 						"/>
					</g>
					<rect x="637.287" y="479.835" fill="#1A1A1A" width="58.416" height="10.241"/>
					<g>
						<path fill="#B7292D" d="M681.857,411.934l-15.362,0.259l-15.361,0.159l-0.414,0.004l-0.004-0.422l-0.086-9.681l-0.03-9.681
							l-0.06-19.363l-0.002-0.595l0.595,0.002l30.723,0.099l0.499,0.002l-0.005,0.493l-0.182,19.363l-0.139,9.681L681.857,411.934z
							 M681.857,411.934l-0.173-9.681l-0.139-9.681l-0.182-19.363l0.494,0.494l-30.723,0.099l0.593-0.593l-0.06,19.363l-0.03,9.681
							l-0.086,9.681l-0.417-0.417l15.361,0.159L681.857,411.934z"/>
					</g>
					<g>
						<path fill="#B7292D" d="M681.857,470.206l-15.362,0.259l-15.361,0.159l-0.414,0.004l-0.004-0.422l-0.086-9.681l-0.03-9.681
							l-0.06-19.362l-0.002-0.595l0.595,0.002l30.723,0.099l0.499,0.002l-0.005,0.493l-0.182,19.362l-0.139,9.681L681.857,470.206z
							 M681.857,470.206l-0.173-9.681l-0.139-9.681l-0.182-19.362l0.494,0.494l-30.723,0.099l0.593-0.593l-0.06,19.362l-0.03,9.681
							l-0.086,9.681l-0.417-0.417l15.361,0.159L681.857,470.206z"/>
					</g>
					<circle fill="#1A1A1A" cx="680.777" cy="423.621" r="2.565"/>
				</g>
				<polygon fill="#B7292D" points="666.387,202.032 531.813,336.606 556.778,336.606 666.387,230.159 775.996,336.606 
					800.961,336.606 				"/>
				<path fill="#B7292D" d="M613.814,244.438c0,2.868-2.324,5.193-5.193,5.193h-23.509c-2.868,0-5.193-2.326-5.193-5.193v-8.655
					c0-2.868,2.324-5.192,5.193-5.192h23.509c2.868,0,5.193,2.324,5.193,5.192V244.438z"/>
				<g>
					<circle fill="#9DD0E5" cx="666.386" cy="310.397" r="31.114"/>
					<g>
						<rect x="663.791" y="279.283" fill="#4E4D4D" width="5.193" height="62.229"/>
					</g>
					<g>
						<rect x="635.272" y="307.8" fill="#4E4D4D" width="62.231" height="5.193"/>
					</g>
					<path fill="#1A1A1A" d="M632.676,310.397c0-18.589,15.123-33.71,33.711-33.71c18.589,0,33.711,15.122,33.711,33.71
						c0,18.589-15.122,33.711-33.711,33.711C647.799,344.108,632.676,328.986,632.676,310.397z M637.869,310.397
						c0,15.725,12.794,28.519,28.518,28.519c15.725,0,28.517-12.793,28.517-28.519c0-15.725-12.792-28.517-28.517-28.517
						C650.663,281.88,637.869,294.672,637.869,310.397z"/>
				</g>
				<g>
					<g>
						<g>
							<g>
								<rect x="580.573" y="381.117" fill="#9DD0E5" width="39.151" height="53.683"/>
								<path fill="#4E4D4D" d="M575.38,375.924v64.069h49.536v-64.069H575.38z M619.723,434.8h-39.151v-53.683h39.151V434.8z"/>
							</g>
							<polygon opacity="0.3" fill="#F1F1F1" points="619.723,382.468 580.573,412.566 580.573,421.255 619.723,391.154 							"/>
							<polygon opacity="0.3" fill="#F1F1F1" points="619.723,396.012 580.573,426.113 580.573,434.8 619.723,404.7 							"/>
						</g>
						<rect x="570.708" y="422.969" fill="#1A1A1A" width="58.88" height="17.025"/>
					</g>
					<g>
						<g>
							<g>
								<rect x="713.051" y="381.117" fill="#9DD0E5" width="39.15" height="53.683"/>
								<path fill="#4E4D4D" d="M707.858,375.924v64.069h49.537v-64.069H707.858z M752.201,434.8h-39.15v-53.683h39.15V434.8z"/>
							</g>
							<polygon opacity="0.3" fill="#F1F1F1" points="752.201,382.468 713.051,412.566 713.051,421.255 752.201,391.154 							"/>
							<polygon opacity="0.3" fill="#F1F1F1" points="752.201,396.012 713.051,426.113 713.051,434.8 752.201,404.7 							"/>
						</g>
						<rect x="703.187" y="422.969" fill="#1A1A1A" width="58.879" height="17.025"/>
					</g>
				</g>
				<g>
					<polygon fill="#A27A51" points="695.125,479.835 714.458,479.835 719.649,470.063 689.931,470.063 					"/>
					<path fill="#87BC43" d="M693.603,459.184c-0.023-0.189-0.036-0.381-0.036-0.575c0-2.607,2.061-4.785,4.815-5.331
						c0.761-0.917,1.975-1.519,3.356-1.519c1.793,0,3.31,1.008,3.9,2.415c1.264-1.465,3.253-2.415,5.494-2.415
						c3.82,0,6.918,2.745,6.918,6.13c0,0.78-0.172,1.526-0.474,2.213c1.405,0.662,2.371,1.954,2.371,3.463
						c0,0.615-0.175,1.191-0.46,1.711h-4.846h-2.821h-0.296h-4.978h-0.831h-0.561h-3.298h-0.093h-4.21h-2.452h-4.64
						c-0.517-0.636-0.828-1.41-0.828-2.251C689.634,461.006,691.38,459.369,693.603,459.184z"/>
					<rect x="687.806" y="465.159" fill="#C1996C" width="33.968" height="5.888"/>
				</g>
				<g>
					<polygon fill="#A27A51" points="618.317,479.835 637.65,479.835 642.843,470.063 613.125,470.063 					"/>
					<path fill="#87BC43" d="M616.796,459.184c-0.022-0.189-0.036-0.381-0.036-0.575c0-2.607,2.06-4.785,4.815-5.331
						c0.761-0.917,1.974-1.519,3.355-1.519c1.793,0,3.311,1.008,3.9,2.415c1.265-1.465,3.253-2.415,5.494-2.415
						c3.82,0,6.918,2.745,6.918,6.13c0,0.78-0.173,1.526-0.473,2.213c1.404,0.662,2.371,1.954,2.371,3.463
						c0,0.615-0.176,1.191-0.46,1.711h-4.846h-2.821h-0.296h-4.98h-0.83h-0.561h-3.298h-0.093h-4.209h-2.452h-4.64
						c-0.517-0.636-0.828-1.41-0.828-2.251C612.827,461.006,614.573,459.369,616.796,459.184z"/>
					<rect x="611" y="465.159" fill="#C1996C" width="33.967" height="5.888"/>
				</g>
			</g>
		</g>
	</g>
	<g>
		<g>
			<polygon fill="#164195" points="445.055,186.943 264.64,186.943 309.64,148.649 264.64,110.359 445.055,110.359 			"/>
			<polygon fill="#17264D" points="408.521,159.852 445.055,186.943 445.055,110.359 408.521,110.359 			"/>
		</g>
		<g>
			<polygon fill="#164195" points="754.944,186.943 935.36,186.943 890.36,148.649 935.36,110.359 754.944,110.359 			"/>
			<polygon fill="#17264D" points="791.479,159.852 754.944,186.943 754.944,110.359 791.479,110.359 			"/>
		</g>
		<g>
			<rect x="408.521" y="83.268" fill="#214FA1" width="382.958" height="76.585"/>
		</g>
		<line fill="none" x1="408.522" y1="137.613" x2="791.48" y2="137.613"/>
		<text transform="matrix(1 0 0 1 490.9616 137.613)"><tspan x="0" y="0" fill="#FFFFFF" font-family="'PatuaOne-Regular'" font-size="49.0968">S</tspan><tspan x="24.203" y="0" fill="#FFFFFF" font-family="'PatuaOne-Regular'" font-size="49.0968">T</tspan><tspan x="48.611" y="0" fill="#FFFFFF" font-family="'PatuaOne-Regular'" font-size="49.0968">U</tspan><tspan x="80.357" y="0" fill="#FFFFFF" font-family="'PatuaOne-Regular'" font-size="49.0968">D</tspan><tspan x="113.073" y="0" fill="#FFFFFF" font-family="'PatuaOne-Regular'" font-size="49.0968">E</tspan><tspan x="137.229" y="0" fill="#FFFFFF" font-family="'PatuaOne-Regular'" font-size="49.0968">N</tspan><tspan x="169.542" y="0" fill="#FFFFFF" font-family="'PatuaOne-Regular'" font-size="49.0968">T</tspan><tspan x="193.937" y="0" fill="#FFFFFF" font-family="'PatuaOne-Regular'" font-size="49.0968">S</tspan></text>
	</g>
	<g>
		<rect x="564.809" y="36.175" fill="#FFFFFF" width="70.382" height="47.093"/>
		<g>
			<rect x="496.351" y="57.49" fill="#FFFFFF" width="68.457" height="25.778"/>
			<g>
				<rect x="508.13" y="64.69" fill="#214FA1" width="44.261" height="8.183"/>
				<rect x="518.916" y="64.69" fill="#FFFFFF" width="1.488" height="8.183"/>
				<rect x="529.516" y="64.69" fill="#FFFFFF" width="1.488" height="8.183"/>
				<rect x="540.117" y="64.69" fill="#FFFFFF" width="1.488" height="8.183"/>
			</g>
			<rect x="491.889" y="50.556" fill="#214FA1" width="72.92" height="6.934"/>
		</g>
		<g>
			<rect x="635.191" y="57.49" fill="#FFFFFF" width="68.457" height="25.778"/>
			<g>
				<rect x="647.609" y="64.69" fill="#214FA1" width="44.261" height="8.183"/>
				<rect x="679.596" y="64.69" fill="#FFFFFF" width="1.488" height="8.183"/>
				<rect x="668.995" y="64.69" fill="#FFFFFF" width="1.488" height="8.183"/>
				<rect x="658.396" y="64.69" fill="#FFFFFF" width="1.487" height="8.183"/>
			</g>
			<rect x="635.191" y="50.556" fill="#214FA1" width="72.92" height="6.934"/>
		</g>
		<rect x="560.695" y="29.242" fill="#214FA1" width="78.603" height="6.933"/>
		<circle fill="#214FA1" cx="600" cy="46.093" r="6.2"/>
		<g>
			<rect x="591.813" y="64.241" fill="#214FA1" width="16.365" height="13.762"/>
			<rect x="593.925" y="66.054" fill="#FFFFFF" width="4.34" height="4.324"/>
			<rect x="601.726" y="66.054" fill="#FFFFFF" width="4.341" height="4.324"/>
		</g>
		<g>
			<rect x="598.274" y="13.114" fill="#FFFFFF" width="3.452" height="16.128"/>
			<polygon fill="#214FA1" points="601.726,13.114 601.726,21.647 613.513,17.381 			"/>
		</g>
	</g>
	<g>
		<g>
			<path fill="#7F4B3A" d="M650.339,333.129c-1.11-0.441-2.367,0.102-2.806,1.211h-0.001l0.833-2.098
				c0.441-1.11-0.101-2.365-1.211-2.806c-1.109-0.44-2.365,0.102-2.805,1.212l-0.833,2.099l-0.001,0l1.553-3.913
				c0.441-1.109-0.102-2.365-1.212-2.806c-1.109-0.441-2.365,0.102-2.806,1.212l-0.718,1.811c0.438-1.109-0.105-2.362-1.213-2.802
				c-1.109-0.441-2.366,0.102-2.805,1.212l-2.078,5.233l0.001,0l-0.762,1.919l-0.582-2.43c-0.278-1.16-1.444-1.875-2.605-1.598
				c-1.161,0.278-1.876,1.444-1.598,2.605l2.014,8.404l-1.003,2.526l16.068,6.376l5.779-14.561
				C651.991,334.825,651.448,333.569,650.339,333.129z"/>
			<g>
				<g>
					<path fill="#74B42B" d="M586.029,393.2l3.419-17.968c0,0-0.28-0.059-0.771-0.162c-0.245-0.051-0.544-0.113-0.885-0.185
						c-0.342-0.09-0.729-0.192-1.15-0.304c-1.685-0.449-3.941-1.188-6.162-2.153c-2.225-0.953-4.402-2.102-6.009-3.04
						c-0.804-0.465-1.474-0.882-1.959-1.184c-0.519-0.326-0.816-0.513-0.816-0.513l-9.736,15.484c0,0,0.307,0.193,0.845,0.531
						c0.573,0.357,1.418,0.883,2.465,1.489c2.088,1.218,4.962,2.74,7.984,4.035c3.012,1.309,6.188,2.361,8.635,3.013
						c0.613,0.16,1.176,0.307,1.674,0.437c0.509,0.109,0.951,0.204,1.316,0.282C585.611,393.114,586.029,393.2,586.029,393.2z"/>
					<path fill="#295F3F" d="M613.846,390.158l-7.575-16.648c0,0-0.059,0.03-0.17,0.085c-0.112,0.053-0.271,0.148-0.49,0.217
						c-0.431,0.159-1.044,0.389-1.776,0.681c-1.507,0.432-3.51,1.045-5.642,1.189c-2.117,0.189-4.296,0.171-5.961-0.04
						c-0.413-0.023-0.796-0.087-1.136-0.142c-0.339-0.051-0.635-0.096-0.879-0.132c-0.487-0.062-0.768-0.135-0.768-0.135
						l-3.419,17.968c0,0,0.413,0.099,1.163,0.205c0.373,0.057,0.826,0.125,1.346,0.205c0.519,0.081,1.105,0.17,1.76,0.219
						c2.583,0.313,6.135,0.39,9.696,0.054c3.577-0.279,7.095-1.255,9.673-2.055c1.263-0.481,2.316-0.883,3.053-1.164
						c0.372-0.135,0.644-0.279,0.834-0.367C613.744,390.206,613.846,390.158,613.846,390.158z"/>
				</g>
				<g>
					<path fill="#74B42B" d="M634.561,372.603l-14.71-10.871c0,0-0.181,0.245-0.499,0.674c-0.158,0.215-0.35,0.476-0.571,0.775
						c-0.218,0.302-0.502,0.591-0.789,0.935c-1.145,1.385-2.74,3.125-4.455,4.605c-0.429,0.368-0.858,0.736-1.28,1.098
						c-0.426,0.35-0.875,0.631-1.29,0.941c-0.424,0.29-0.811,0.624-1.214,0.852c-0.399,0.236-0.776,0.459-1.123,0.665
						c-0.35,0.197-0.654,0.427-0.951,0.551c-0.291,0.139-0.546,0.261-0.755,0.36c-0.417,0.204-0.655,0.321-0.655,0.321l7.575,16.648
						c0,0,0.404-0.194,1.11-0.535c0.352-0.173,0.78-0.382,1.27-0.622c0.498-0.23,1.001-0.57,1.581-0.9
						c0.571-0.342,1.189-0.713,1.843-1.105c0.656-0.39,1.273-0.881,1.948-1.35c0.659-0.485,1.37-0.963,2.031-1.499
						c0.646-0.549,1.302-1.107,1.959-1.665c2.6-2.253,4.866-4.737,6.448-6.646c0.398-0.476,0.791-0.902,1.086-1.301
						c0.297-0.398,0.557-0.746,0.771-1.032C634.318,372.93,634.561,372.603,634.561,372.603z"/>
					<path fill="#295F3F" d="M646.493,350.511l-16.995-6.76c0,0-0.516,1.209-1.29,3.022c-0.727,1.85-1.915,4.139-3.052,6.461
						c-0.622,1.11-1.245,2.22-1.829,3.261c-0.277,0.536-0.61,0.983-0.894,1.441c-0.29,0.451-0.565,0.877-0.818,1.271
						c-0.252,0.394-0.484,0.756-0.688,1.076c-0.214,0.309-0.415,0.56-0.573,0.777c-0.319,0.428-0.501,0.673-0.501,0.673
						l14.71,10.871c0,0,0.242-0.328,0.667-0.902c0.209-0.288,0.477-0.634,0.757-1.039c0.266-0.41,0.566-0.873,0.893-1.378
						c0.326-0.506,0.679-1.054,1.052-1.633c0.363-0.583,0.79-1.186,1.134-1.836c0.724-1.292,1.497-2.669,2.269-4.047
						c1.387-2.792,2.806-5.584,3.654-7.717C645.891,351.927,646.493,350.511,646.493,350.511z"/>
				</g>
			</g>
		</g>
		<circle fill="#1E252B" cx="548.119" cy="303.7" r="44.465"/>
		<rect x="540.937" y="347.256" fill="#7F4B3A" width="22.174" height="15.791"/>
		<path fill="#7F4B3A" d="M552.023,273.735c-18.81,0-34.059,15.249-34.059,34.059v13.944c0,18.811,15.249,34.059,34.059,34.059
			c18.811,0,34.059-15.249,34.059-34.059v-13.944C586.082,288.984,570.834,273.735,552.023,273.735z"/>
		<g>
			<circle fill="#1E252B" cx="579.675" cy="311.337" r="2.63"/>
			<path fill="none" stroke="#1E252B" stroke-width="2" stroke-linecap="round" stroke-linejoin="round" stroke-miterlimit="10" d="
				M584.119,306.893c-1.137-1.138-2.709-1.841-4.444-1.841c-1.736,0-3.307,0.704-4.444,1.841"/>
		</g>
		<path fill="#1E252B" d="M548.503,270.736c-38.34,0-36.227,33.148-35.883,40.755h-0.054v10.261
			c-0.046,0.314-0.078,0.632-0.078,0.959c0,3.608,2.925,6.533,6.533,6.533c3.608,0,6.533-2.925,6.533-6.533v-10.166h8.849v-19.782
			h51.68C586.082,292.763,585.241,270.736,548.503,270.736z"/>
		<g>
			<defs>
				<path id="SVGID_3_" d="M552.023,359.658c-16.934,0-30.663,5.831-30.663,15.775v64.011h61.326v-64.011
					C582.686,365.489,568.958,359.658,552.023,359.658z"/>
			</defs>
			<clipPath id="SVGID_4_">
				<use xlink:href="#SVGID_3_"  overflow="visible"/>
			</clipPath>
			<g clip-path="url(#SVGID_4_)">
				<rect x="521.36" y="425.856" fill="#74B42B" width="61.326" height="13.588"/>
				<rect x="521.36" y="412.266" fill="#295F3F" width="61.326" height="13.589"/>
				<rect x="521.36" y="398.678" fill="#74B42B" width="61.326" height="13.588"/>
				<rect x="521.36" y="385.089" fill="#295F3F" width="61.326" height="13.589"/>
				<rect x="521.36" y="371.5" fill="#74B42B" width="61.326" height="13.589"/>
				<rect x="521.36" y="357.911" fill="#295F3F" width="61.326" height="13.589"/>
			</g>
		</g>
		<g>
			<g>
				<circle fill="#1E252B" cx="550.732" cy="311.337" r="2.63"/>
				
					<path fill="none" stroke="#1E252B" stroke-width="2" stroke-linecap="round" stroke-linejoin="round" stroke-miterlimit="10" d="
					M555.176,306.893c-1.138-1.138-2.709-1.841-4.445-1.841c-1.735,0-3.307,0.704-4.444,1.841"/>
			</g>
			<path fill="none" stroke="#1E252B" stroke-width="3" stroke-linecap="round" stroke-linejoin="round" stroke-miterlimit="10" d="
				M557.496,328.573c2.388,2.389,5.688,3.866,9.332,3.866c3.644,0,6.945-1.477,9.333-3.865"/>
			<path fill="#EE7D85" d="M571.834,316.179c-0.358,0-0.703,0.054-1.03,0.15v0c-0.002,0.001-0.004,0.001-0.007,0.002
				c-0.059,0.017-0.117,0.038-0.175,0.059c-2.952,1.051-3.227-1.405-3.227-5.466c0-1.306-1.06-2.365-2.366-2.365
				c-1.307,0-2.366,1.059-2.366,2.365c0,4.289-1.866,16.546,10.15,12.405c0.119-0.033,0.236-0.072,0.35-0.117
				c0.007-0.002,0.013-0.004,0.02-0.007v-0.001c1.342-0.537,2.293-1.847,2.293-3.382
				C575.478,317.81,573.846,316.179,571.834,316.179z"/>
		</g>
		<g>
			<g>
				<path fill="#073A6A" d="M538.706,535.267c-4.774,0-8.644-3.87-8.644-8.644v-73.238c0-4.774,3.87-8.644,8.644-8.644
					c4.774,0,8.643,3.87,8.643,8.644v73.238C547.349,531.397,543.48,535.267,538.706,535.267z"/>
				<g>
					<path fill="#FFFFFF" d="M530.062,526.623v7.435h-1.283c-12.658,0-13.941,4.926-13.941,8.551h32.511v-15.986H530.062z"/>
					<rect x="530.062" y="526.623" fill="#0B53A4" width="5.222" height="7.435"/>
					<g>
						<rect x="530.062" y="531.33" fill="#142849" width="5.222" height="0.985"/>
						<rect x="530.062" y="528.367" fill="#142849" width="5.222" height="0.985"/>
					</g>
					<rect x="514.838" y="542.609" fill="#0B53A4" width="32.511" height="2.091"/>
				</g>
			</g>
			<g>
				<path fill="#073A6A" d="M565.341,535.267c-4.774,0-8.644-3.87-8.644-8.644v-73.238c0-4.774,3.87-8.644,8.644-8.644
					s8.643,3.87,8.643,8.644v73.238C573.985,531.397,570.115,535.267,565.341,535.267z"/>
				<g>
					<path fill="#FFFFFF" d="M573.985,526.623v7.435h1.283c12.658,0,13.941,4.926,13.941,8.551h-32.511v-15.986H573.985z"/>
					<rect x="568.762" y="526.623" fill="#0B53A4" width="5.223" height="7.435"/>
					<g>
						<rect x="568.762" y="531.33" fill="#142849" width="5.223" height="0.985"/>
						<rect x="568.762" y="528.367" fill="#142849" width="5.223" height="0.985"/>
					</g>
					<rect x="556.698" y="542.609" fill="#0B53A4" width="32.511" height="2.091"/>
				</g>
			</g>
			<path fill="#073A6A" d="M582.686,439.444v1.115c0,14.722-12.045,26.767-26.767,26.767h-7.792
				c-14.722,0-26.767-12.045-26.767-26.767v-1.115H582.686z"/>
		</g>
		<g>
			<path fill="#F4D546" d="M587.553,316.618h-14.64v-10.562h14.64V316.618z M574.586,314.945h11.294v-7.216h-11.294V314.945z"/>
			<path fill="#F4D546" d="M558.052,316.618h-14.64v-10.562h14.64V316.618z M545.085,314.945h11.294v-7.216h-11.294V314.945z"/>
			<rect x="557.216" y="307.721" fill="#F4D546" width="16.534" height="1.673"/>
			<rect x="527.292" y="308.836" fill="#F4D546" width="17.037" height="1.673"/>
		</g>
		<circle fill="#7F4B3A" cx="526.671" cy="312.546" r="4.161"/>
		<g>
			<path fill="#7F4B3A" d="M509.681,446.563l-4.971-7.069v-2.719h-17.287v15.666c0,1.194,0.967,2.161,2.161,2.161
				c1.193,0,2.161-0.967,2.161-2.161v2.258c0,1.194,0.967,2.161,2.161,2.161c1.193,0,2.161-0.967,2.161-2.161v1.952
				c0,1.194,0.967,2.161,2.161,2.161c1.193,0,2.161-0.967,2.161-2.161V454.7c0,1.194,0.967,2.161,2.161,2.161
				c1.193,0,2.161-0.967,2.161-2.161v-7.694l1.437,2.042c0.686,0.977,2.035,1.211,3.01,0.525
				C510.133,448.886,510.368,447.539,509.681,446.563z"/>
			<g>
				<g>
					<path fill="#74B42B" d="M507.844,377.559l12.581,13.276c0,0,0.17-0.158,0.468-0.434c0.29-0.29,0.736-0.643,1.257-1.088
						c1.057-0.856,2.517-1.896,3.983-2.668c0.732-0.403,1.454-0.701,2.108-0.966c0.643-0.221,1.221-0.402,1.642-0.48
						c0.209-0.038,0.41-0.094,0.536-0.094c0.13-0.009,0.28-0.053,0.333-0.038c0.138,0.002,0.216-0.016,0.216-0.016
						s1.48-15.671-0.236-17.361c-1.268-1.249-7.625,0.483-8.38,0.71c-1.661,0.5-3.251,1.273-4.781,2.082
						c-2.776,1.466-5.226,3.233-6.959,4.639c-0.852,0.713-1.569,1.306-2.028,1.751C508.114,377.31,507.844,377.559,507.844,377.559z
						"/>
					<path fill="#295F3F" d="M494.926,395.993l16.609,7.662c0,0,0.111-0.23,0.305-0.631c0.203-0.393,0.448-0.99,0.819-1.647
						c0.703-1.342,1.701-3.082,2.818-4.702c1.125-1.61,2.332-3.124,3.302-4.165c0.476-0.531,0.903-0.93,1.185-1.233
						c0.141-0.151,0.26-0.257,0.34-0.33c0.08-0.074,0.123-0.113,0.123-0.113l-12.581-13.276c0,0-0.067,0.063-0.193,0.18
						c-0.126,0.118-0.313,0.288-0.533,0.517c-0.439,0.457-1.1,1.092-1.825,1.897c-1.479,1.592-3.27,3.827-4.884,6.151
						c-1.606,2.328-2.994,4.752-3.958,6.593c-0.505,0.914-0.842,1.701-1.116,2.241C495.075,395.683,494.926,395.993,494.926,395.993
						z"/>
				</g>
				<g>
					<path fill="#74B42B" d="M488.65,416.51l18.008,3.205c0,0,0.04-0.268,0.138-0.726c0.093-0.461,0.224-1.119,0.383-1.907
						c0.333-1.572,0.841-3.64,1.442-5.659c0.294-1.013,0.651-1.992,0.948-2.929c0.345-0.909,0.668-1.758,0.944-2.484
						c0.304-0.708,0.558-1.298,0.735-1.712c0.171-0.417,0.288-0.642,0.288-0.642l-16.609-7.662c0,0-0.156,0.309-0.387,0.86
						c-0.236,0.551-0.573,1.337-0.977,2.281c-0.362,0.953-0.784,2.065-1.237,3.257c-0.39,1.201-0.846,2.479-1.222,3.767
						c-0.768,2.574-1.401,5.164-1.814,7.108c-0.195,0.974-0.357,1.784-0.471,2.352C488.7,416.185,488.65,416.51,488.65,416.51z"/>
					<path fill="#295F3F" d="M486.921,437.194h18.29c0,0,0.019-1.111,0.047-2.777c0-0.835,0.048-1.8,0.105-2.834
						c0.053-1.034,0.095-2.139,0.206-3.228c0.159-2.195,0.443-4.353,0.658-5.97c0.258-1.601,0.429-2.67,0.429-2.67l-18.008-3.205
						c0,0-0.209,1.298-0.522,3.246c-0.264,1.945-0.599,4.542-0.789,7.129c-0.129,1.296-0.182,2.586-0.243,3.796
						c-0.066,1.21-0.119,2.339-0.123,3.301C486.942,435.909,486.921,437.194,486.921,437.194z"/>
				</g>
			</g>
		</g>
	</g>
	<g>
		<g>
			<path fill="#EFCE9D" d="M886.641,393.834c-22.818,0-38.778-9.057-47.437-26.92c-8.114-16.738-9.232-39.739-9.232-62.102
				c0-5.467,4.431-9.898,9.898-9.898c5.467,0,9.898,4.431,9.898,9.898c0,19.044,0.861,40.288,7.25,53.466
				c5.355,11.046,14.215,15.76,29.625,15.76c5.467,0,9.898,4.431,9.898,9.898C896.539,389.403,892.108,393.834,886.641,393.834z"/>
			<path fill="#3471B8" d="M886.887,370.697l-25.196-5.924l-5.648,24.021l25.197,5.923c6.635,1.56,13.274-2.552,14.834-9.186
				C897.633,378.897,893.522,372.256,886.887,370.697z"/>
			<g>
				<g>
					<path fill="#EFCE9D" d="M854.859,290.158c-1.117-0.786-2.662-0.518-3.447,0.601l-1.645,2.339v-8.81
						c0-1.367-1.108-2.474-2.474-2.474c-1.367,0-2.474,1.108-2.474,2.474v-2.235c0-1.367-1.108-2.474-2.474-2.474
						c-1.367,0-2.474,1.107-2.474,2.474v2.235c0-1.367-1.108-2.474-2.474-2.474c-1.367,0-2.474,1.108-2.474,2.474v2.585
						c0-1.367-1.108-2.474-2.474-2.474c-1.367,0-2.474,1.107-2.474,2.474v17.94h19.796v-3.113l5.693-8.094
						C856.246,292.488,855.977,290.945,854.859,290.158z"/>
				</g>
			</g>
		</g>
		<rect x="894.518" y="348.74" fill="#EFCE9D" width="25.391" height="18.083"/>
		<path fill="#EFCE9D" d="M907.214,264.55c21.54,0,39.002,17.461,39.002,39.002v15.967c0,21.54-17.461,39.002-39.002,39.002
			c-21.54,0-39.001-17.461-39.001-39.002v-15.967C868.214,282.012,885.674,264.55,907.214,264.55z"/>
		<g>
			<path fill="#3471B8" d="M907.214,362.942c-19.392,0-35.112,6.677-35.112,18.064v73.3h70.225v-73.3
				C942.327,369.619,926.606,362.942,907.214,362.942z"/>
			<g>
				<path fill="#46AAD7" d="M877.11,386.798v8.254c0,4.403,3.569,7.971,7.971,7.971c4.402,0,7.971-3.568,7.971-7.971v-8.254H877.11z
					"/>
				<rect x="877.11" y="384.758" fill="#00478E" width="15.941" height="2.04"/>
			</g>
			<g>
				<rect x="880.356" y="380.262" fill="#FFFFFF" width="2.398" height="4.496"/>
				<rect x="879.043" y="382.257" fill="#282E34" width="1.314" height="5.548"/>
			</g>
			<path fill="#EFCE9D" d="M907.214,362.942c-3.579,0-7.031,0.229-10.284,0.672l5.474,10.174l7.505-10.797
				C909.019,362.962,908.122,362.942,907.214,362.942z"/>
		</g>
		<g>
			<g>
				<circle fill="#333E48" cx="908.693" cy="307.61" r="3.012"/>
				
					<path fill="none" stroke="#333E48" stroke-width="2" stroke-linecap="round" stroke-linejoin="round" stroke-miterlimit="10" d="
					M903.604,302.52c1.303-1.303,3.102-2.108,5.09-2.108c1.987,0,3.787,0.806,5.089,2.108"/>
			</g>
			<path fill="none" stroke="#333E48" stroke-width="3" stroke-linecap="round" stroke-linejoin="round" stroke-miterlimit="10" d="
				M900.947,327.347c-2.734,2.736-6.512,4.427-10.685,4.427c-4.173,0-7.952-1.692-10.687-4.426"/>
			<g>
				<circle fill="#EE7D85" cx="892.32" cy="307.135" r="2.709"/>
				<circle fill="#EE7D85" cx="884.528" cy="317.325" r="4.172"/>
				<path fill="#EE7D85" d="M895.029,307.135c0,4.963,2.191,19.252-12.047,14.064l2.726-7.874c3.583,1.401,3.902-1.442,3.902-6.19
					H895.029z"/>
			</g>
			<g>
				<circle fill="#333E48" cx="875.55" cy="307.61" r="3.011"/>
				
					<path fill="none" stroke="#333E48" stroke-width="2" stroke-linecap="round" stroke-linejoin="round" stroke-miterlimit="10" d="
					M870.461,302.52c1.302-1.303,3.102-2.108,5.089-2.108c1.988,0,3.788,0.806,5.09,2.108"/>
			</g>
		</g>
		<path fill="#282E34" d="M952.187,312.607c0-1.573-0.914-2.93-2.238-3.578c1.324-0.648,2.238-2.004,2.238-3.577
			c0-1.636-0.987-3.04-2.397-3.654c1.372-0.63,2.326-2.012,2.326-3.62c0-1.951-1.403-3.572-3.255-3.916
			c0.82-0.73,1.339-1.79,1.339-2.974c0-2.002-1.479-3.655-3.402-3.938c0.857-0.731,1.403-1.817,1.403-3.032
			c0-2.201-1.784-3.985-3.985-3.985c-0.213,0-0.42,0.021-0.624,0.054c0.393-0.618,0.624-1.349,0.624-2.135
			c0-2.201-1.784-3.985-3.985-3.985c-0.334,0-0.657,0.046-0.967,0.123c0.122-0.382,0.188-0.788,0.188-1.21
			c0-2.201-1.784-3.985-3.985-3.985c-0.293,0-0.577,0.034-0.852,0.094c0.046-0.243,0.073-0.494,0.073-0.751
			c0-2.201-1.784-3.985-3.985-3.985c-0.966,0-1.852,0.345-2.542,0.917c-0.406-1.77-1.988-3.092-3.881-3.092
			c-1.038,0-1.98,0.4-2.689,1.05c-0.486-1.652-2.012-2.859-3.821-2.859c-1.234,0-2.336,0.561-3.067,1.442
			c-0.676-1.239-1.99-2.08-3.501-2.08c-1.514,0-2.832,0.845-3.506,2.09c-0.674-1.245-1.992-2.09-3.506-2.09
			c-1.87,0-3.435,1.291-3.865,3.029c-0.718-1.046-1.922-1.733-3.286-1.733c-2.092,0-3.804,1.613-3.969,3.662
			c-0.731-0.872-1.827-1.427-3.054-1.427c-2.19,0-3.967,1.768-3.984,3.955c-0.591-0.347-1.277-0.549-2.012-0.549
			c-2.201,0-3.985,1.784-3.985,3.985c0,0.188,0.018,0.371,0.043,0.552c-0.592-0.349-1.28-0.552-2.017-0.552
			c-2.201,0-3.985,1.784-3.985,3.985c0,0.474,0.087,0.927,0.24,1.349c-0.307-0.076-0.625-0.12-0.955-0.12
			c-2.201,0-3.985,1.784-3.985,3.985c0,0.81,0.243,1.562,0.658,2.191c-0.026-0.001-0.052-0.004-0.079-0.004
			c-2.201,0-3.985,1.784-3.985,3.985c0,2.201,1.784,3.985,3.985,3.985c0.591,0,1.15-0.132,1.654-0.363
			c0.263,1.947,1.926,3.449,3.945,3.449c0.953,0,1.827-0.336,2.513-0.893c0.06,2.149,1.817,3.874,3.98,3.874
			c1.346,0,2.534-0.669,3.255-1.691c0.536,1.567,2.019,2.696,3.768,2.696c1.2,0,2.274-0.533,3.005-1.373
			c0.641,1.342,2.007,2.272,3.594,2.272c1.445,0,2.707-0.772,3.406-1.923c0.699,1.151,1.961,1.923,3.406,1.923
			c1.644,0,3.055-0.996,3.664-2.417c0.692,0.578,1.582,0.927,2.554,0.927c1.289,0,2.432-0.615,3.161-1.564
			c0.72,0.711,1.708,1.15,2.799,1.15c1.522,0,2.844-0.854,3.515-2.108c0.616,0.389,1.343,0.618,2.125,0.618
			c1.697,0,3.142-1.062,3.717-2.556c0.56,0.519,1.267,0.878,2.053,1.008c-0.356,0.597-0.565,1.292-0.565,2.038
			c0,0.98,0.355,1.875,0.942,2.57c-0.586,0.694-0.942,1.59-0.942,2.57c0,1.33,0.654,2.505,1.656,3.229
			c-0.278,0.544-0.438,1.158-0.438,1.811c0,1.216,0.546,2.302,1.404,3.033c-0.394,0.618-0.625,1.349-0.625,2.136
			c0,1.774,1.161,3.277,2.764,3.793c0.484,1.288,1.004,2.511,1.548,3.646c-0.21,0.485-0.327,1.018-0.327,1.58
			c0,2.143,1.693,3.886,3.814,3.976c0.062,0.07,0.123,0.137,0.185,0.204c-0.006,0.093-0.014,0.185-0.014,0.279
			c0,2.201,1.784,3.985,3.985,3.985c0.955,0,1.831-0.337,2.518-0.897c0.73,0.817,1.788,1.334,2.969,1.334
			c2.201,0,3.985-1.784,3.985-3.985c0-0.336-0.046-0.659-0.124-0.971c1.882-0.318,3.317-1.952,3.317-3.925
			c0-1.509-0.84-2.822-2.077-3.499C951.315,315.476,952.187,314.144,952.187,312.607z"/>
		<circle fill="#EFCE9D" cx="931.482" cy="317.37" r="4.764"/>
		<g>
			<g>
				<path fill="#333E48" d="M922.464,564.034c5.466,0,9.898-4.431,9.898-9.898v-83.865c0-5.466-4.431-9.898-9.898-9.898
					s-9.898,4.431-9.898,9.898v83.865C912.566,559.602,916.998,564.034,922.464,564.034z"/>
				<g>
					<path fill="#7B6755" d="M932.362,554.136v8.514h1.469c14.495,0,15.964,5.641,15.964,9.792h-37.229v-18.306H932.362z"/>
					<rect x="926.382" y="554.136" fill="#A49382" width="5.98" height="8.514"/>
					<g>
						<rect x="926.382" y="559.525" fill="#493728" width="5.98" height="1.128"/>
						<rect x="926.382" y="556.133" fill="#493728" width="5.98" height="1.128"/>
					</g>
					<rect x="912.566" y="572.442" fill="#493728" width="37.229" height="2.395"/>
				</g>
			</g>
			<g>
				<path fill="#333E48" d="M891.964,564.034c5.466,0,9.897-4.431,9.897-9.898v-83.865c0-5.466-4.431-9.898-9.897-9.898
					c-5.467,0-9.898,4.431-9.898,9.898v83.865C882.066,559.602,886.498,564.034,891.964,564.034z"/>
				<g>
					<path fill="#7B6755" d="M882.066,554.136v8.514h-1.469c-14.495,0-15.964,5.641-15.964,9.792h37.228v-18.306H882.066z"/>
					<rect x="882.066" y="554.136" fill="#A49382" width="5.98" height="8.514"/>
					<g>
						<rect x="882.066" y="559.525" fill="#493728" width="5.98" height="1.128"/>
						<rect x="882.066" y="556.133" fill="#493728" width="5.98" height="1.128"/>
					</g>
					<rect x="864.633" y="572.442" fill="#493728" width="37.228" height="2.395"/>
				</g>
			</g>
			<path fill="#333E48" d="M872.102,454.306v1.277c0,16.858,13.793,30.651,30.651,30.651h8.923
				c16.858,0,30.651-13.793,30.651-30.651v-1.277H872.102z"/>
		</g>
		<g>
			<polygon fill="#46AAD7" points="905.715,362.383 917.482,362.383 902.404,373.788 			"/>
			<polygon fill="#46AAD7" points="898.372,362.383 888.7,362.383 902.404,373.788 			"/>
		</g>
		<g>
			<path fill="#EFCE9D" d="M964.709,464.204c-5.466,0-9.898-4.431-9.898-9.898c0-32.361-8.245-54.249-24.504-65.057
				c-4.553-3.026-5.79-9.17-2.764-13.722c3.026-4.552,9.171-5.79,13.722-2.764c22.124,14.705,33.342,42.141,33.342,81.543
				C974.607,459.773,970.175,464.204,964.709,464.204z"/>
			<path fill="#EFCE9D" d="M954.811,454.306v3.113l-5.693,8.094c-0.786,1.117-0.518,2.66,0.6,3.447
				c1.117,0.786,2.662,0.518,3.447-0.601l1.645-2.339v8.81c0,1.367,1.108,2.474,2.474,2.474c1.367,0,2.474-1.108,2.474-2.474v2.235
				c0,1.367,1.108,2.474,2.474,2.474c1.367,0,2.474-1.108,2.474-2.474v-2.235c0,1.367,1.108,2.474,2.474,2.474
				c1.367,0,2.474-1.108,2.474-2.474v-2.585c0,1.367,1.108,2.474,2.474,2.474c1.367,0,2.474-1.108,2.474-2.474v-17.94H954.811z"/>
			<path fill="#3471B8" d="M945.72,373.075c-4.358-5.241-12.134-5.957-17.375-1.598c-5.24,4.357-5.957,12.135-1.599,17.375
				l16.549,19.902l18.974-15.777L945.72,373.075z"/>
		</g>
	</g>
	<g>
		<g>
			<g>
				<path fill="#F1CCB1" d="M309.317,393.372c-16.868,0-30.515-4.874-40.564-14.485c-12.2-11.67-18.385-29.85-18.385-54.034
					c0-5.367,4.351-9.718,9.718-9.718c5.367,0,9.718,4.351,9.718,9.718c0,18.674,4.167,32.128,12.384,39.989
					c6.309,6.034,15.436,9.094,27.129,9.094c5.367,0,9.718,4.351,9.718,9.718C319.034,389.021,314.684,393.372,309.317,393.372z"/>
			</g>
			<path fill="#F1CCB1" d="M274.803,310.465c-1.097-0.771-2.613-0.508-3.385,0.59l-1.615,2.296v-8.65
				c0-1.342-1.087-2.429-2.429-2.429c-1.342,0-2.429,1.088-2.429,2.429v-2.194c0-1.342-1.087-2.429-2.429-2.429
				c-1.342,0-2.429,1.088-2.429,2.429v2.194c0-1.342-1.087-2.429-2.429-2.429c-1.342,0-2.429,1.088-2.429,2.429v2.538
				c0-1.342-1.087-2.429-2.429-2.429c-1.342,0-2.429,1.088-2.429,2.429v17.614h19.436v-3.057l5.59-7.947
				C276.165,312.752,275.902,311.237,274.803,310.465z"/>
			<g>
				<g>
					<path fill="#FFFFFF" d="M319.309,369.145h-27.592v24.227h27.592c6.692,0,12.113-5.423,12.113-12.114
						S326.001,369.145,319.309,369.145z"/>
				</g>
			</g>
		</g>
		<g>
			<g>
				<path fill="#F1CCB1" d="M366.069,396.063c15.847,5.782,30.337,5.881,43.071,0.296c15.461-6.781,27.503-21.74,35.793-44.459
					c1.839-5.042-0.756-10.62-5.798-12.46c-5.041-1.839-10.62,0.756-12.46,5.798c-6.402,17.543-14.927,28.754-25.341,33.322
					c-7.995,3.506-17.618,3.252-28.602-0.756c-5.043-1.839-10.62,0.757-12.461,5.799
					C358.432,388.645,361.028,394.223,366.069,396.063z"/>
			</g>
			<path fill="#F1CCB1" d="M449.522,332.238c-1.261-0.46-2.656,0.189-3.115,1.449h-0.001l0.87-2.385
				c0.46-1.261-0.189-2.655-1.449-3.115c-1.261-0.46-2.656,0.189-3.115,1.45l-0.87,2.385l1.622-4.446
				c0.46-1.261-0.189-2.655-1.45-3.115c-1.26-0.46-2.655,0.189-3.115,1.449l-0.751,2.058c0.459-1.26-0.19-2.653-1.45-3.112
				c-1.26-0.46-2.655,0.189-3.114,1.45l-0.871,2.384l-0.354,0.972l-0.946,2.59l0.001,0l-0.795,2.179l-0.73-2.711
				c-0.349-1.296-1.682-2.062-2.978-1.714c-1.296,0.349-2.063,1.682-1.714,2.978l2.527,9.382l-1.047,2.871l18.258,6.662
				l6.037-16.547C451.431,334.092,450.782,332.698,449.522,332.238z"/>
			<g>
				<g>
					<path fill="#FFFFFF" d="M364.988,369.878c-6.287-2.294-13.238,0.941-15.532,7.227c-2.293,6.286,0.94,13.239,7.227,15.532
						l25.921,9.458l8.305-22.76L364.988,369.878z"/>
				</g>
			</g>
		</g>
		<rect x="327.607" y="349.046" fill="#F1CCB1" width="24.93" height="17.754"/>
		<path fill="#F1CCB1" d="M340.072,266.388c-21.148,0-38.293,17.144-38.293,38.292v15.677c0,21.148,17.145,38.292,38.293,38.292
			c21.148,0,38.291-17.144,38.291-38.292V304.68C378.364,283.532,361.22,266.388,340.072,266.388z"/>
		<g>
			<rect x="305.598" y="380.726" fill="#FFFFFF" width="68.948" height="71.967"/>
			<path fill="#FFFFFF" d="M374.546,380.726c0-11.18-15.434-17.735-34.473-17.735c-19.039,0-34.475,6.556-34.475,17.735
				s15.435,23.378,34.475,23.378C359.112,404.104,374.546,391.906,374.546,380.726z"/>
		</g>
		<g>
			<g>
				<circle fill="#333E48" cx="338.62" cy="308.664" r="2.957"/>
				
					<path fill="none" stroke="#333E48" stroke-width="2" stroke-linecap="round" stroke-linejoin="round" stroke-miterlimit="10" d="
					M343.617,303.667c-1.28-1.279-3.045-2.07-4.997-2.07c-1.951,0-3.718,0.791-4.997,2.07"/>
			</g>
			<path fill="none" stroke="#333E48" stroke-width="3" stroke-linecap="round" stroke-linejoin="round" stroke-miterlimit="10" d="
				M346.225,328.042c2.685,2.686,6.394,4.347,10.491,4.347c4.097,0,7.808-1.661,10.493-4.346"/>
			<g>
				<circle fill="#EE7D85" cx="354.696" cy="308.198" r="2.66"/>
				<circle fill="#EE7D85" cx="362.346" cy="318.203" r="4.096"/>
				<path fill="#EE7D85" d="M352.036,308.198c0,4.872-2.151,18.902,11.828,13.808l-2.677-7.731
					c-3.518,1.375-3.831-1.416-3.831-6.077H352.036z"/>
			</g>
			<g>
				<circle fill="#333E48" cx="371.16" cy="308.664" r="2.957"/>
				
					<path fill="none" stroke="#333E48" stroke-width="2" stroke-linecap="round" stroke-linejoin="round" stroke-miterlimit="10" d="
					M376.157,303.667c-1.278-1.279-3.045-2.07-4.996-2.07c-1.952,0-3.719,0.791-4.997,2.07"/>
			</g>
		</g>
		<circle fill="#F1CCB1" cx="316.246" cy="318.247" r="4.678"/>
		<path fill="#333E48" d="M375.41,270.33c2.714-4.124,3.774-8.673,2.954-11.367c-4.354,6.75-25.548,7.122-34.303,6.891
			c-0.647-0.029-1.293-0.052-1.939-0.067c-0.193-0.009-0.379-0.017-0.544-0.026l0.025,0.018c-0.511-0.009-1.021-0.018-1.53-0.018
			c-17.451,0-34.028,9.207-38.803,27.278c-2.121,2.873-5.072,5.701-7.602,5.005c0.896,1.309,3.54,3.532,6.271,4.366
			c-0.019,0.544-0.04,1.087-0.04,1.643v15.677c0,7.199,3.808,9.13,10.279,6.474c5.799-2.38,13.323-23.493,9.483-34.835
			c5.852,2.926,63.244,15.869,72.439-20.181C388.22,272.201,382.369,271.512,375.41,270.33z"/>
		<g>
			<g>
				<path fill="#0B53A4" d="M325.099,560.424c-5.367,0-9.718-4.351-9.718-9.718v-82.34c0-5.367,4.351-9.718,9.718-9.718
					c5.367,0,9.718,4.351,9.718,9.718v82.34C334.817,556.073,330.466,560.424,325.099,560.424z"/>
				<g>
					<path fill="#142849" d="M315.382,550.706v8.359h-1.442c-14.231,0-15.674,5.539-15.674,9.614h36.552v-17.973H315.382z"/>
					<rect x="315.382" y="550.706" fill="#FFFFFF" width="5.872" height="8.359"/>
					<g>
						<rect x="315.382" y="555.998" fill="#142849" width="5.872" height="1.108"/>
						<rect x="315.382" y="552.667" fill="#142849" width="5.872" height="1.108"/>
					</g>
					<rect x="298.265" y="568.679" fill="#0B53A4" width="36.552" height="2.351"/>
				</g>
			</g>
			<g>
				<path fill="#0B53A4" d="M355.045,560.424c-5.367,0-9.717-4.351-9.717-9.718v-82.34c0-5.367,4.35-9.718,9.717-9.718
					c5.367,0,9.718,4.351,9.718,9.718v82.34C364.763,556.073,360.412,560.424,355.045,560.424z"/>
				<g>
					<path fill="#142849" d="M364.763,550.706v8.359h1.442c14.231,0,15.674,5.539,15.674,9.614h-36.551v-17.973H364.763z"/>
					<rect x="358.891" y="550.706" fill="#FFFFFF" width="5.872" height="8.359"/>
					<g>
						<rect x="358.891" y="555.998" fill="#142849" width="5.872" height="1.108"/>
						<rect x="358.891" y="552.667" fill="#142849" width="5.872" height="1.108"/>
					</g>
					<rect x="345.328" y="568.679" fill="#0B53A4" width="36.551" height="2.351"/>
				</g>
			</g>
			<path fill="#0B53A4" d="M374.546,452.693v1.254c0,16.552-13.542,30.094-30.093,30.094h-8.761
				c-16.551,0-30.094-13.542-30.094-30.094v-1.254H374.546z"/>
		</g>
	</g>
</g>
</svg>
